M48
METRIC,LZ,000.000
;FILE_FORMAT=3:3
;TYPE=PLATED
;Layer: PTH_Through
;EasyEDA v6.5.22, 2023-03-28 23:00:35
;5c3957acffbf4fda84b53d144d602fd1,1f4b798e1f424c36b07c5063a1ef9d4e,10
;Gerber Generator version 0.2
;Holesize 1 = 0.600 mm
T01C0.600
;Holesize 2 = 0.889 mm
T02C0.889
;Holesize 3 = 0.900 mm
T03C0.900
;Holesize 4 = 0.901 mm
T04C0.901
;Holesize 5 = 0.915 mm
T05C0.915
;Holesize 6 = 1.021 mm
T06C1.021
;Holesize 7 = 1.101 mm
T07C1.101
;Holesize 8 = 2.540 mm
T08C2.540
%
G05
G90
T01
X001651Y022860
X002901Y022860
X004151Y022860
X002423Y019685
X003673Y019685
X026553Y019812
X027803Y019812
T02
X015113Y022733
X017653Y022733
X020193Y022733
X022987Y022733
X025527Y022733
X028067Y022733
X031242Y022479
X033782Y022479
X036322Y022479
X031242Y019685
X033782Y019685
X036322Y019685
X007239Y022733
X009779Y022733
X012319Y022733
X049403Y014986
X049403Y012446
X049403Y009906
X049403Y007366
T03
X041148Y007112
X033528Y007112
X033528Y009271
X041148Y009271
T04
X041148Y016637
X038608Y001397
X033527Y001397
X028447Y001397
X023367Y001397
X018287Y001397
X013207Y001397
X008127Y001397
X005588Y016637
X010669Y016637
X015749Y016637
X020829Y016637
X025909Y016637
X030989Y016637
X036068Y016637
X038608Y016637
X033528Y016637
X028448Y016637
X023368Y016637
X018288Y016637
X013208Y016637
X008128Y016637
X005588Y001397
X010668Y001397
X015748Y001397
X020828Y001397
X025908Y001397
X030988Y001397
X036068Y001397
X041148Y001397
T05
X027178Y006096
X027178Y008636
X027178Y011176
X027178Y013716
T06
X023114Y019812
X020574Y019812
X018034Y019812
X015494Y019812
X012954Y019812
X010414Y019812
X023114Y004572
X020574Y004572
X018034Y004572
X015494Y004572
X012954Y004572
X010414Y004572
T07
X046482Y003937
X046482Y001397
T08
X045553Y020574
X040553Y020574
M30
