G04 Layer: TopSilkscreenLayer*
G04 EasyEDA v6.5.22, 2023-03-28 23:00:35*
G04 5c3957acffbf4fda84b53d144d602fd1,1f4b798e1f424c36b07c5063a1ef9d4e,10*
G04 Gerber Generator version 0.2*
G04 Scale: 100 percent, Rotated: No, Reflected: No *
G04 Dimensions in millimeters *
G04 leading zeros omitted , absolute positions ,4 integer and 5 decimal *
%FSLAX45Y45*%
%MOMM*%

%ADD10C,0.1524*%
%ADD11C,0.1500*%
%ADD12C,0.0500*%
%ADD13C,0.1520*%
%ADD14C,0.2032*%
%ADD15C,0.2030*%
%ADD16C,0.2540*%
%ADD17C,0.0140*%

%LPD*%
G36*
X490474Y1427480D02*
G01*
X461467Y1427073D01*
X434644Y1425651D01*
X422503Y1424533D01*
X411429Y1423162D01*
X385622Y1418691D01*
X359359Y1413256D01*
X334670Y1407261D01*
X322935Y1404112D01*
X300634Y1397304D01*
X279908Y1389938D01*
X270154Y1386078D01*
X260705Y1382064D01*
X251663Y1377899D01*
X208991Y1356664D01*
X211664Y1311503D01*
X240487Y1311503D01*
X240842Y1319936D01*
X241909Y1326489D01*
X242671Y1329182D01*
X243636Y1331518D01*
X244805Y1333652D01*
X247700Y1337157D01*
X251307Y1340205D01*
X255676Y1343101D01*
X262839Y1347012D01*
X271983Y1351330D01*
X282956Y1355852D01*
X295300Y1360525D01*
X308762Y1365300D01*
X323088Y1370025D01*
X345338Y1376781D01*
X374904Y1384706D01*
X388975Y1387957D01*
X402082Y1390650D01*
X414324Y1392682D01*
X427482Y1394256D01*
X441706Y1395526D01*
X456742Y1396441D01*
X472338Y1397050D01*
X504037Y1397203D01*
X519633Y1396796D01*
X534619Y1396085D01*
X548843Y1395069D01*
X561949Y1393748D01*
X573684Y1392174D01*
X583793Y1390294D01*
X591972Y1388160D01*
X605028Y1382877D01*
X608888Y1380794D01*
X607212Y1380286D01*
X581660Y1383487D01*
X569010Y1384706D01*
X556209Y1385570D01*
X543204Y1386128D01*
X530098Y1386433D01*
X503631Y1386078D01*
X476961Y1384604D01*
X463600Y1383436D01*
X450291Y1381963D01*
X423875Y1378254D01*
X397967Y1373479D01*
X385216Y1370685D01*
X372668Y1367637D01*
X360324Y1364335D01*
X348284Y1360779D01*
X336499Y1356969D01*
X324967Y1352956D01*
X313842Y1348638D01*
X303022Y1344168D01*
X263448Y1326184D01*
X267106Y1152448D01*
X267258Y1131773D01*
X267004Y1117650D01*
X266395Y1110081D01*
X265887Y1108811D01*
X265633Y1108760D01*
X264922Y1109980D01*
X263194Y1117346D01*
X260908Y1131417D01*
X254457Y1179677D01*
X250139Y1213916D01*
X244449Y1261465D01*
X242519Y1279601D01*
X241198Y1294434D01*
X240538Y1306474D01*
X240487Y1311503D01*
X211664Y1311503D01*
X213614Y1281938D01*
X216052Y1253236D01*
X218998Y1223822D01*
X222097Y1197406D01*
X225298Y1174242D01*
X229362Y1147419D01*
X239318Y1086764D01*
X251155Y1019606D01*
X255879Y994257D01*
X259994Y973734D01*
X263753Y957122D01*
X265074Y953109D01*
X266039Y952144D01*
X267665Y951433D01*
X270103Y950823D01*
X277317Y950214D01*
X287985Y950315D01*
X302412Y951077D01*
X336397Y954024D01*
X357886Y955344D01*
X384200Y956310D01*
X413969Y956919D01*
X462026Y957122D01*
X502310Y956767D01*
X532790Y956106D01*
X560222Y955141D01*
X583285Y953871D01*
X600506Y952398D01*
X606552Y951534D01*
X612902Y950010D01*
X614883Y949858D01*
X616661Y950264D01*
X618236Y951433D01*
X619658Y953516D01*
X621080Y956716D01*
X622503Y961085D01*
X623976Y966876D01*
X627329Y983335D01*
X635152Y1027023D01*
X641858Y1067460D01*
X648258Y1108659D01*
X656082Y1163624D01*
X663041Y1217117D01*
X667461Y1255369D01*
X672236Y1302562D01*
X674065Y1324102D01*
X678484Y1388160D01*
X654507Y1400556D01*
X643077Y1405432D01*
X629767Y1410411D01*
X616254Y1414932D01*
X605993Y1417828D01*
X596900Y1419758D01*
X586435Y1421485D01*
X574802Y1423009D01*
X548640Y1425397D01*
X534568Y1426260D01*
X505256Y1427276D01*
G37*
G36*
X429310Y945794D02*
G01*
X409549Y945387D01*
X401574Y944981D01*
X364134Y941984D01*
X329336Y938479D01*
X297230Y934466D01*
X282244Y932281D01*
X254406Y927506D01*
X229412Y922274D01*
X217982Y919480D01*
X197459Y913536D01*
X188315Y910386D01*
X179984Y907135D01*
X172364Y903782D01*
X165557Y900328D01*
X159562Y896772D01*
X154330Y893064D01*
X149910Y889304D01*
X146354Y885444D01*
X142798Y880008D01*
X141071Y874471D01*
X141020Y868883D01*
X142697Y863396D01*
X145999Y858012D01*
X150977Y852779D01*
X157530Y847801D01*
X165658Y843127D01*
X175564Y838453D01*
X185978Y834186D01*
X195681Y830783D01*
X199898Y829513D01*
X203454Y828700D01*
X211328Y827532D01*
X216458Y828090D01*
X219557Y830732D01*
X222046Y837336D01*
X223926Y840333D01*
X226821Y843127D01*
X230733Y845819D01*
X235712Y848309D01*
X241706Y850696D01*
X248716Y852881D01*
X256743Y854913D01*
X265734Y856742D01*
X275742Y858469D01*
X286715Y859993D01*
X298653Y861364D01*
X311607Y862584D01*
X340309Y864463D01*
X372770Y865682D01*
X408940Y866241D01*
X448767Y866089D01*
X494334Y865174D01*
X541121Y863650D01*
X578205Y861618D01*
X593394Y860399D01*
X606501Y858977D01*
X617677Y857402D01*
X627024Y855573D01*
X634695Y853541D01*
X640689Y851255D01*
X645261Y848766D01*
X648512Y845972D01*
X650494Y842873D01*
X652932Y834542D01*
X654354Y832967D01*
X656691Y832612D01*
X660501Y833577D01*
X666242Y835812D01*
X685596Y844448D01*
X701192Y851966D01*
X707593Y855421D01*
X713130Y858723D01*
X717905Y861974D01*
X721868Y865174D01*
X725068Y868375D01*
X727608Y871575D01*
X729538Y874877D01*
X730808Y878230D01*
X731570Y881786D01*
X731824Y885494D01*
X731621Y888136D01*
X731012Y890778D01*
X729945Y893368D01*
X728522Y895908D01*
X726694Y898398D01*
X724408Y900836D01*
X721766Y903224D01*
X718718Y905560D01*
X715264Y907846D01*
X707186Y912266D01*
X697534Y916482D01*
X686358Y920445D01*
X673709Y924204D01*
X659485Y927709D01*
X643839Y930960D01*
X626719Y933958D01*
X613359Y935939D01*
X593344Y938225D01*
X569417Y940308D01*
X542747Y942136D01*
X493522Y944575D01*
X466090Y945387D01*
G37*
G36*
X409041Y771245D02*
G01*
X409041Y742899D01*
X428904Y742899D01*
X429361Y750011D01*
X431495Y753770D01*
X436372Y755091D01*
X445008Y754634D01*
X452729Y753364D01*
X457708Y751230D01*
X460349Y747826D01*
X461162Y742899D01*
X460349Y737971D01*
X457708Y734618D01*
X452729Y732434D01*
X445008Y731164D01*
X436372Y730758D01*
X431495Y732028D01*
X429361Y735838D01*
X428904Y742899D01*
X409041Y742899D01*
X409041Y702360D01*
X428904Y702360D01*
X429463Y709015D01*
X431850Y712876D01*
X437134Y714603D01*
X446278Y715060D01*
X455422Y714603D01*
X460654Y712876D01*
X463092Y709015D01*
X463651Y702360D01*
X463092Y695706D01*
X460654Y691896D01*
X455422Y690118D01*
X446278Y689711D01*
X437134Y690118D01*
X431850Y691896D01*
X429463Y695706D01*
X428904Y702360D01*
X409041Y702360D01*
X409041Y674471D01*
X445058Y674624D01*
X452475Y675030D01*
X458978Y675741D01*
X464616Y676808D01*
X469392Y678230D01*
X473405Y680008D01*
X476707Y682244D01*
X479247Y684834D01*
X481177Y687933D01*
X482498Y691489D01*
X483260Y695553D01*
X483514Y700176D01*
X482955Y706272D01*
X481482Y711708D01*
X479247Y715822D01*
X476554Y718108D01*
X473201Y719988D01*
X472033Y722731D01*
X473151Y727252D01*
X479653Y741527D01*
X480720Y747115D01*
X479704Y752246D01*
X476605Y757986D01*
X474472Y760780D01*
X471932Y763066D01*
X468884Y764946D01*
X465074Y766470D01*
X460400Y767638D01*
X454710Y768553D01*
X447751Y769264D01*
G37*
G36*
X46482Y770788D02*
G01*
X46482Y760628D01*
X78435Y760628D01*
X89458Y760222D01*
X96672Y758647D01*
X101092Y755548D01*
X103581Y750519D01*
X105359Y743204D01*
X105765Y736955D01*
X104749Y731723D01*
X102362Y727506D01*
X98552Y724204D01*
X93319Y721918D01*
X86614Y720547D01*
X78435Y720090D01*
X56438Y720090D01*
X56438Y760628D01*
X46482Y760628D01*
X46583Y712317D01*
X47294Y694791D01*
X47853Y687781D01*
X48564Y682142D01*
X49428Y677976D01*
X50393Y675386D01*
X51460Y674471D01*
X53390Y675894D01*
X54965Y679704D01*
X56032Y685342D01*
X56438Y692251D01*
X56489Y698042D01*
X56794Y702411D01*
X57607Y705561D01*
X59182Y707694D01*
X61772Y708964D01*
X65633Y709676D01*
X77978Y709980D01*
X86766Y710488D01*
X94386Y712012D01*
X100939Y714552D01*
X106324Y718108D01*
X110540Y722579D01*
X113537Y728065D01*
X115417Y734415D01*
X116027Y741730D01*
X115671Y746150D01*
X114604Y750265D01*
X112928Y754024D01*
X110540Y757428D01*
X107543Y760425D01*
X103936Y763117D01*
X99720Y765403D01*
X94894Y767334D01*
X89509Y768807D01*
X83616Y769924D01*
X77165Y770585D01*
X70205Y770788D01*
G37*
G36*
X130911Y770788D02*
G01*
X130936Y720090D01*
X140817Y720090D01*
X140868Y747014D01*
X141173Y752043D01*
X141884Y755650D01*
X143306Y758088D01*
X145592Y759561D01*
X148996Y760323D01*
X153771Y760628D01*
X160121Y760628D01*
X168198Y760069D01*
X175615Y758494D01*
X181610Y756107D01*
X185470Y753110D01*
X187706Y749147D01*
X188976Y744118D01*
X189280Y738479D01*
X188468Y732840D01*
X186131Y726135D01*
X182118Y722274D01*
X174955Y720496D01*
X163118Y720090D01*
X130936Y720090D01*
X131267Y703021D01*
X131673Y694791D01*
X132994Y682142D01*
X133858Y677976D01*
X134823Y675386D01*
X135890Y674471D01*
X137820Y675894D01*
X139395Y679704D01*
X140462Y685342D01*
X141224Y701852D01*
X143103Y707186D01*
X147472Y709472D01*
X155346Y709980D01*
X162814Y709117D01*
X169062Y706221D01*
X174701Y700786D01*
X185115Y685342D01*
X189636Y679704D01*
X193497Y675894D01*
X196291Y674471D01*
X197358Y675894D01*
X196697Y679653D01*
X194360Y685190D01*
X190652Y691997D01*
X180086Y709472D01*
X190246Y719836D01*
X194157Y724357D01*
X197053Y728878D01*
X199085Y733399D01*
X200253Y737819D01*
X200507Y742188D01*
X199948Y746404D01*
X198628Y750417D01*
X196494Y754227D01*
X193700Y757732D01*
X190144Y760933D01*
X185928Y763778D01*
X181051Y766165D01*
X175564Y768096D01*
X169519Y769569D01*
X162864Y770483D01*
X155752Y770788D01*
G37*
G36*
X257556Y770788D02*
G01*
X249783Y769975D01*
X242417Y767537D01*
X235458Y763524D01*
X229006Y757986D01*
X225399Y753973D01*
X222300Y749757D01*
X219710Y745439D01*
X217576Y740968D01*
X215950Y736396D01*
X214731Y731774D01*
X213918Y727100D01*
X213621Y721766D01*
X225247Y721766D01*
X225856Y730605D01*
X227584Y738987D01*
X230174Y746150D01*
X233476Y751382D01*
X237947Y755192D01*
X243484Y757936D01*
X249783Y759663D01*
X256438Y760323D01*
X263194Y759917D01*
X269697Y758444D01*
X275691Y755904D01*
X280720Y752246D01*
X283667Y748842D01*
X286054Y744575D01*
X287883Y739648D01*
X289153Y734161D01*
X289864Y728370D01*
X290068Y722426D01*
X289763Y716432D01*
X288848Y710641D01*
X287477Y705154D01*
X285546Y700176D01*
X283057Y695858D01*
X280060Y692404D01*
X275590Y688797D01*
X271018Y686104D01*
X266395Y684225D01*
X261670Y683158D01*
X257048Y682853D01*
X252526Y683310D01*
X248107Y684479D01*
X243941Y686308D01*
X240029Y688797D01*
X236474Y691896D01*
X233273Y695604D01*
X230581Y699820D01*
X228346Y704596D01*
X226669Y709879D01*
X225602Y715619D01*
X225247Y721766D01*
X213621Y721766D01*
X213664Y717854D01*
X214121Y713282D01*
X215036Y708863D01*
X216306Y704545D01*
X217932Y700379D01*
X219913Y696417D01*
X222250Y692658D01*
X224942Y689203D01*
X227990Y686003D01*
X231343Y683158D01*
X235000Y680618D01*
X238963Y678484D01*
X243179Y676808D01*
X247700Y675538D01*
X252526Y674776D01*
X257556Y674471D01*
X262839Y674827D01*
X267868Y675741D01*
X272694Y677265D01*
X277215Y679348D01*
X281482Y681939D01*
X285394Y685038D01*
X288950Y688543D01*
X292150Y692454D01*
X294894Y696722D01*
X297230Y701294D01*
X299110Y706221D01*
X300532Y711403D01*
X301396Y716788D01*
X301752Y722325D01*
X301548Y728065D01*
X300736Y733907D01*
X299516Y738479D01*
X297637Y743000D01*
X295097Y747420D01*
X292049Y751636D01*
X288544Y755599D01*
X284632Y759256D01*
X280466Y762508D01*
X276047Y765302D01*
X271424Y767588D01*
X266801Y769315D01*
X262128Y770432D01*
G37*
G36*
X319633Y770788D02*
G01*
X319735Y712317D01*
X320395Y694791D01*
X321716Y682142D01*
X322580Y677976D01*
X323545Y675386D01*
X324612Y674471D01*
X326542Y676249D01*
X328117Y681126D01*
X329184Y688289D01*
X329539Y697026D01*
X329539Y719531D01*
X376732Y723341D01*
X345389Y724611D01*
X339547Y725068D01*
X335381Y725881D01*
X332536Y727303D01*
X330809Y729488D01*
X329946Y732688D01*
X329590Y737057D01*
X329539Y760628D01*
X354076Y760628D01*
X363880Y761034D01*
X372313Y762152D01*
X378561Y763727D01*
X381711Y765708D01*
X380796Y767842D01*
X375361Y769467D01*
X365709Y770432D01*
X352196Y770788D01*
G37*
G36*
X726846Y770788D02*
G01*
X707136Y770432D01*
X700227Y769975D01*
X694994Y769264D01*
X691235Y768299D01*
X688848Y766978D01*
X687527Y765251D01*
X687120Y763168D01*
X688035Y759866D01*
X690829Y757478D01*
X695502Y756056D01*
X702005Y755599D01*
X716940Y755599D01*
X716991Y702614D01*
X717194Y693013D01*
X717651Y685901D01*
X718464Y680821D01*
X719734Y677519D01*
X721461Y675589D01*
X723798Y674725D01*
X726846Y674471D01*
X729894Y674725D01*
X732231Y675589D01*
X734009Y677519D01*
X735228Y680821D01*
X736041Y685901D01*
X736498Y693013D01*
X736803Y715060D01*
X736803Y755599D01*
X751687Y755599D01*
X758190Y756056D01*
X762863Y757478D01*
X765657Y759866D01*
X766572Y763168D01*
X766216Y765251D01*
X764895Y766978D01*
X762457Y768299D01*
X758748Y769264D01*
X753516Y769975D01*
X746556Y770432D01*
G37*
G36*
X539902Y770737D02*
G01*
X535686Y770534D01*
X531469Y769924D01*
X527253Y768858D01*
X523036Y767283D01*
X518871Y765149D01*
X514807Y762558D01*
X510793Y759358D01*
X504901Y753059D01*
X500329Y745540D01*
X497027Y736752D01*
X494995Y726694D01*
X494558Y722731D01*
X513334Y722731D01*
X513537Y727557D01*
X514350Y732282D01*
X515772Y736752D01*
X517906Y740867D01*
X520750Y744575D01*
X524357Y747674D01*
X529488Y751078D01*
X534060Y753465D01*
X538276Y754786D01*
X542188Y755040D01*
X545947Y754278D01*
X549757Y752398D01*
X553720Y749452D01*
X557987Y745439D01*
X561848Y740511D01*
X564997Y734568D01*
X567131Y728370D01*
X567944Y722630D01*
X567232Y717092D01*
X565251Y711403D01*
X562305Y705866D01*
X558495Y700735D01*
X554126Y696315D01*
X549402Y692810D01*
X544525Y690524D01*
X539800Y689711D01*
X535228Y690168D01*
X531012Y691591D01*
X527202Y693775D01*
X523798Y696620D01*
X520801Y700125D01*
X518312Y704088D01*
X516280Y708406D01*
X514705Y713028D01*
X513740Y717854D01*
X513334Y722731D01*
X494558Y722731D01*
X493979Y714908D01*
X494284Y710387D01*
X495198Y706374D01*
X496874Y702614D01*
X499414Y698804D01*
X502869Y694690D01*
X507339Y689965D01*
X512216Y685444D01*
X517245Y681736D01*
X522427Y678738D01*
X527659Y676452D01*
X532942Y674928D01*
X538276Y674065D01*
X543509Y673963D01*
X548640Y674522D01*
X553669Y675792D01*
X558495Y677722D01*
X563067Y680313D01*
X567385Y683615D01*
X571398Y687527D01*
X575005Y692150D01*
X578256Y697331D01*
X580999Y703224D01*
X582777Y708152D01*
X584047Y713079D01*
X584758Y717905D01*
X585012Y722630D01*
X584860Y727252D01*
X584250Y731723D01*
X583234Y736092D01*
X581812Y740257D01*
X580085Y744270D01*
X578002Y748030D01*
X575614Y751636D01*
X572922Y754938D01*
X569976Y757986D01*
X566775Y760780D01*
X563422Y763219D01*
X559816Y765403D01*
X556056Y767232D01*
X552196Y768654D01*
X548182Y769772D01*
X544068Y770432D01*
G37*
G36*
X640486Y770636D02*
G01*
X635304Y770331D01*
X630174Y769366D01*
X625195Y767740D01*
X620369Y765454D01*
X615746Y762508D01*
X611428Y758901D01*
X607466Y754735D01*
X604012Y750366D01*
X601116Y745744D01*
X598728Y740968D01*
X596900Y736041D01*
X595630Y730961D01*
X594918Y725830D01*
X594823Y722630D01*
X612648Y722630D01*
X613308Y728065D01*
X615289Y733704D01*
X618236Y739241D01*
X621944Y744372D01*
X626211Y748842D01*
X630783Y752398D01*
X635457Y754735D01*
X639927Y755599D01*
X643636Y754786D01*
X648106Y752602D01*
X652881Y749401D01*
X657352Y745439D01*
X661263Y740460D01*
X664108Y734872D01*
X665835Y728929D01*
X666546Y722782D01*
X666242Y716584D01*
X665073Y710641D01*
X662990Y705053D01*
X660146Y700024D01*
X656539Y695807D01*
X652221Y692556D01*
X647242Y690422D01*
X641654Y689711D01*
X636676Y690524D01*
X631596Y692759D01*
X626719Y696214D01*
X622249Y700582D01*
X618388Y705662D01*
X615340Y711200D01*
X613359Y716940D01*
X612648Y722630D01*
X594823Y722630D01*
X594766Y720699D01*
X595172Y715518D01*
X596188Y710387D01*
X597763Y705307D01*
X599948Y700328D01*
X602843Y695248D01*
X606145Y690727D01*
X609803Y686714D01*
X613714Y683209D01*
X617931Y680313D01*
X622350Y677926D01*
X626973Y676148D01*
X631748Y674928D01*
X636625Y674319D01*
X641553Y674268D01*
X646582Y674776D01*
X651560Y675944D01*
X656488Y677722D01*
X661365Y680059D01*
X666089Y683107D01*
X670712Y686714D01*
X674624Y690372D01*
X677773Y693877D01*
X680212Y697382D01*
X682040Y701141D01*
X683310Y705307D01*
X684072Y710184D01*
X684530Y715873D01*
X684530Y729437D01*
X684072Y735126D01*
X683310Y739952D01*
X682040Y744169D01*
X680212Y747928D01*
X677773Y751433D01*
X674624Y754888D01*
X670712Y758545D01*
X666038Y762203D01*
X661162Y765251D01*
X656082Y767588D01*
X650951Y769264D01*
X645718Y770280D01*
G37*
G36*
X808786Y769569D02*
G01*
X800709Y768807D01*
X793648Y766622D01*
X787400Y763016D01*
X783132Y759409D01*
X779881Y755599D01*
X777697Y751687D01*
X776528Y747674D01*
X776376Y743610D01*
X777189Y739495D01*
X779018Y735380D01*
X781812Y731316D01*
X785622Y727354D01*
X790346Y723493D01*
X795985Y719734D01*
X811733Y711352D01*
X819251Y706577D01*
X824331Y702462D01*
X826160Y699566D01*
X825449Y696518D01*
X823468Y694080D01*
X820369Y692251D01*
X816305Y691134D01*
X811530Y690676D01*
X806246Y690981D01*
X800557Y691997D01*
X787146Y696417D01*
X781862Y697179D01*
X778205Y696214D01*
X775614Y693420D01*
X774446Y690372D01*
X774649Y687425D01*
X776173Y684784D01*
X778764Y682345D01*
X782320Y680161D01*
X786688Y678281D01*
X791667Y676757D01*
X797102Y675589D01*
X802843Y674776D01*
X808786Y674420D01*
X814628Y674471D01*
X820369Y675030D01*
X825753Y676046D01*
X830630Y677621D01*
X834847Y679754D01*
X838250Y682447D01*
X842162Y687222D01*
X844803Y692048D01*
X846226Y696976D01*
X846429Y701903D01*
X845515Y706729D01*
X843432Y711403D01*
X840333Y715822D01*
X836168Y719988D01*
X831037Y723798D01*
X824941Y727151D01*
X817930Y729996D01*
X810056Y732282D01*
X805027Y734009D01*
X801116Y736447D01*
X798372Y739343D01*
X796848Y742543D01*
X796594Y745794D01*
X797712Y748944D01*
X800201Y751687D01*
X804164Y753872D01*
X808126Y754583D01*
X813257Y754329D01*
X818794Y753160D01*
X824179Y751230D01*
X830427Y748690D01*
X834644Y748131D01*
X837387Y749655D01*
X839368Y753313D01*
X840841Y759815D01*
X838453Y764032D01*
X831189Y766826D01*
X817880Y769010D01*
G37*
G36*
X484682Y614222D02*
G01*
X477672Y614070D01*
X470763Y613257D01*
X464058Y611682D01*
X457708Y609447D01*
X451815Y606450D01*
X440639Y598678D01*
X435711Y596290D01*
X431952Y595680D01*
X429615Y596950D01*
X427126Y600100D01*
X423824Y602894D01*
X419862Y605434D01*
X415340Y607618D01*
X410311Y609447D01*
X404926Y610920D01*
X399186Y612089D01*
X393293Y612851D01*
X387248Y613257D01*
X381254Y613257D01*
X375310Y612902D01*
X369519Y612140D01*
X364032Y610920D01*
X358902Y609346D01*
X354228Y607314D01*
X350113Y604824D01*
X344627Y600049D01*
X338328Y593293D01*
X332028Y585368D01*
X319887Y567690D01*
X313893Y561797D01*
X307390Y558749D01*
X299364Y557936D01*
X292709Y558393D01*
X285699Y559562D01*
X279247Y561289D01*
X274116Y563422D01*
X268833Y566013D01*
X266242Y566115D01*
X265938Y563270D01*
X267462Y557123D01*
X269036Y552043D01*
X273253Y541782D01*
X275793Y536600D01*
X281635Y526440D01*
X288340Y516686D01*
X295706Y507644D01*
X299516Y503478D01*
X307441Y495960D01*
X311454Y492709D01*
X315468Y489813D01*
X319481Y487375D01*
X326440Y483565D01*
X332282Y480720D01*
X337566Y478790D01*
X342798Y477723D01*
X348488Y477469D01*
X355142Y477926D01*
X373532Y480720D01*
X380288Y482092D01*
X393903Y485648D01*
X406349Y490016D01*
X411683Y492302D01*
X416153Y494588D01*
X419557Y496773D01*
X427786Y502615D01*
X433679Y504647D01*
X440080Y502869D01*
X455574Y494182D01*
X461975Y491235D01*
X468934Y488492D01*
X476250Y486054D01*
X483819Y483870D01*
X491490Y481990D01*
X499109Y480517D01*
X506577Y479399D01*
X513740Y478688D01*
X520446Y478434D01*
X526592Y478637D01*
X532028Y479298D01*
X537464Y480771D01*
X543153Y483057D01*
X548995Y486156D01*
X554837Y489915D01*
X560679Y494233D01*
X566420Y499160D01*
X571957Y504494D01*
X577189Y510184D01*
X582015Y516178D01*
X586435Y522376D01*
X590245Y528675D01*
X593445Y535076D01*
X597408Y544423D01*
X600252Y551942D01*
X601929Y557733D01*
X602488Y561898D01*
X601827Y564438D01*
X600100Y565505D01*
X597154Y565048D01*
X588162Y561136D01*
X581863Y559460D01*
X575005Y558342D01*
X568401Y557936D01*
X560781Y558647D01*
X554939Y561035D01*
X550164Y565505D01*
X541782Y579272D01*
X536143Y586740D01*
X529640Y594106D01*
X523036Y600405D01*
X517651Y604418D01*
X511708Y607771D01*
X505358Y610412D01*
X498652Y612394D01*
X491693Y613613D01*
G37*
D10*
X1070355Y1042415D02*
G01*
X1028700Y933450D01*
X1070355Y1042415D02*
G01*
X1111757Y933450D01*
X1044194Y969771D02*
G01*
X1096263Y969771D01*
X1146047Y1042415D02*
G01*
X1146047Y933450D01*
X1146047Y1042415D02*
G01*
X1192784Y1042415D01*
X1208531Y1037336D01*
X1213612Y1032002D01*
X1218945Y1021587D01*
X1218945Y1011173D01*
X1213612Y1000760D01*
X1208531Y995679D01*
X1192784Y990600D01*
X1146047Y990600D01*
X1182370Y990600D02*
G01*
X1218945Y933450D01*
X1253236Y1042415D02*
G01*
X1253236Y933450D01*
X1253236Y1042415D02*
G01*
X1289557Y1042415D01*
X1305052Y1037336D01*
X1315465Y1026921D01*
X1320800Y1016507D01*
X1325879Y1000760D01*
X1325879Y974852D01*
X1320800Y959357D01*
X1315465Y948944D01*
X1305052Y938529D01*
X1289557Y933450D01*
X1253236Y933450D01*
X1360170Y1042415D02*
G01*
X1360170Y964437D01*
X1365250Y948944D01*
X1375663Y938529D01*
X1391412Y933450D01*
X1401826Y933450D01*
X1417320Y938529D01*
X1427734Y948944D01*
X1432813Y964437D01*
X1432813Y1042415D01*
X1467104Y1042415D02*
G01*
X1467104Y933450D01*
X1501394Y1042415D02*
G01*
X1501394Y933450D01*
X1501394Y1042415D02*
G01*
X1574292Y933450D01*
X1574292Y1042415D02*
G01*
X1574292Y933450D01*
X1639570Y1042415D02*
G01*
X1629410Y1037336D01*
X1618995Y1026921D01*
X1613662Y1016507D01*
X1608581Y1000760D01*
X1608581Y974852D01*
X1613662Y959357D01*
X1618995Y948944D01*
X1629410Y938529D01*
X1639570Y933450D01*
X1660397Y933450D01*
X1670812Y938529D01*
X1681226Y948944D01*
X1686560Y959357D01*
X1691639Y974852D01*
X1691639Y1000760D01*
X1686560Y1016507D01*
X1681226Y1026921D01*
X1670812Y1037336D01*
X1660397Y1042415D01*
X1639570Y1042415D01*
X1725929Y896873D02*
G01*
X1819402Y896873D01*
X1853692Y1042415D02*
G01*
X1853692Y933450D01*
X1853692Y1042415D02*
G01*
X1926589Y933450D01*
X1926589Y1042415D02*
G01*
X1926589Y933450D01*
X2002281Y1042415D02*
G01*
X1960879Y933450D01*
X2002281Y1042415D02*
G01*
X2043938Y933450D01*
X1976374Y969771D02*
G01*
X2028190Y969771D01*
X2078227Y1042415D02*
G01*
X2078227Y933450D01*
X2078227Y1042415D02*
G01*
X2150872Y933450D01*
X2150872Y1042415D02*
G01*
X2150872Y933450D01*
X2216404Y1042415D02*
G01*
X2205990Y1037336D01*
X2195575Y1026921D01*
X2190495Y1016507D01*
X2185161Y1000760D01*
X2185161Y974852D01*
X2190495Y959357D01*
X2195575Y948944D01*
X2205990Y938529D01*
X2216404Y933450D01*
X2237231Y933450D01*
X2247645Y938529D01*
X2258059Y948944D01*
X2263140Y959357D01*
X2268220Y974852D01*
X2268220Y1000760D01*
X2263140Y1016507D01*
X2258059Y1026921D01*
X2247645Y1037336D01*
X2237231Y1042415D01*
X2216404Y1042415D01*
D11*
X512762Y302694D02*
G01*
X608266Y302694D01*
X512762Y302694D02*
G01*
X512762Y334444D01*
X517334Y348160D01*
X526224Y357304D01*
X535368Y361876D01*
X549084Y366448D01*
X571690Y366448D01*
X585406Y361876D01*
X594550Y357304D01*
X603694Y348160D01*
X608266Y334444D01*
X608266Y302694D01*
X530796Y396420D02*
G01*
X526224Y405310D01*
X512762Y419026D01*
X608266Y419026D01*
X512762Y458142D02*
G01*
X512762Y508180D01*
X549084Y481002D01*
X549084Y494464D01*
X553656Y503608D01*
X558228Y508180D01*
X571690Y512752D01*
X580834Y512752D01*
X594550Y508180D01*
X603694Y499036D01*
X608266Y485320D01*
X608266Y471858D01*
X603694Y458142D01*
X599122Y453570D01*
X589978Y448998D01*
X766757Y311833D02*
G01*
X766757Y361871D01*
X803079Y334439D01*
X803079Y348155D01*
X807651Y357299D01*
X812223Y361871D01*
X825685Y366443D01*
X834829Y366443D01*
X848545Y361871D01*
X857689Y352727D01*
X862261Y339011D01*
X862261Y325295D01*
X857689Y311833D01*
X853117Y307261D01*
X843973Y302689D01*
X766757Y396415D02*
G01*
X862261Y432737D01*
X766757Y469059D02*
G01*
X862261Y432737D01*
X766757Y508175D02*
G01*
X766757Y558213D01*
X803079Y530781D01*
X803079Y544497D01*
X807651Y553641D01*
X812223Y558213D01*
X825685Y562785D01*
X834829Y562785D01*
X848545Y558213D01*
X857689Y549069D01*
X862261Y535353D01*
X862261Y521891D01*
X857689Y508175D01*
X853117Y503603D01*
X843973Y499031D01*
X1020757Y302689D02*
G01*
X1116261Y302689D01*
X1020757Y302689D02*
G01*
X1020757Y343583D01*
X1025329Y357299D01*
X1029901Y361871D01*
X1038791Y366443D01*
X1047935Y366443D01*
X1057079Y361871D01*
X1061651Y357299D01*
X1066223Y343583D01*
X1066223Y302689D01*
X1066223Y334439D02*
G01*
X1116261Y366443D01*
X1020757Y396415D02*
G01*
X1116261Y396415D01*
X1020757Y396415D02*
G01*
X1020757Y455343D01*
X1066223Y396415D02*
G01*
X1066223Y432737D01*
X1116261Y396415D02*
G01*
X1116261Y455343D01*
X1020757Y485315D02*
G01*
X1116261Y485315D01*
X1020757Y485315D02*
G01*
X1020757Y544497D01*
X1066223Y485315D02*
G01*
X1066223Y521891D01*
X1274759Y339013D02*
G01*
X1370263Y302691D01*
X1274759Y339013D02*
G01*
X1370263Y375335D01*
X1338259Y316407D02*
G01*
X1338259Y361873D01*
X1274759Y432739D02*
G01*
X1279331Y419023D01*
X1292793Y409879D01*
X1315653Y405307D01*
X1329115Y405307D01*
X1351975Y409879D01*
X1365691Y419023D01*
X1370263Y432739D01*
X1370263Y441883D01*
X1365691Y455345D01*
X1351975Y464489D01*
X1329115Y469061D01*
X1315653Y469061D01*
X1292793Y464489D01*
X1279331Y455345D01*
X1274759Y441883D01*
X1274759Y432739D01*
X1528757Y339011D02*
G01*
X1624261Y302689D01*
X1528757Y339011D02*
G01*
X1624261Y375333D01*
X1592257Y316405D02*
G01*
X1592257Y361871D01*
X1546791Y405305D02*
G01*
X1542219Y414449D01*
X1528757Y428165D01*
X1624261Y428165D01*
X1782759Y339013D02*
G01*
X1878263Y302691D01*
X1782759Y339013D02*
G01*
X1878263Y375335D01*
X1846259Y316407D02*
G01*
X1846259Y361873D01*
X1805365Y409879D02*
G01*
X1800793Y409879D01*
X1791903Y414451D01*
X1787331Y419023D01*
X1782759Y428167D01*
X1782759Y446201D01*
X1787331Y455345D01*
X1791903Y459917D01*
X1800793Y464489D01*
X1809937Y464489D01*
X1819081Y459917D01*
X1832797Y450773D01*
X1878263Y405307D01*
X1878263Y469061D01*
X2036759Y339013D02*
G01*
X2132263Y302691D01*
X2036759Y339013D02*
G01*
X2132263Y375335D01*
X2100259Y316407D02*
G01*
X2100259Y361873D01*
X2036759Y414451D02*
G01*
X2036759Y464489D01*
X2073081Y437311D01*
X2073081Y450773D01*
X2077653Y459917D01*
X2082225Y464489D01*
X2095687Y469061D01*
X2104831Y469061D01*
X2118547Y464489D01*
X2127691Y455345D01*
X2132263Y441883D01*
X2132263Y428167D01*
X2127691Y414451D01*
X2123119Y409879D01*
X2113975Y405307D01*
X2290762Y339016D02*
G01*
X2386266Y302694D01*
X2290762Y339016D02*
G01*
X2386266Y375338D01*
X2354262Y316410D02*
G01*
X2354262Y361876D01*
X2290762Y450776D02*
G01*
X2354262Y405310D01*
X2354262Y473636D01*
X2290762Y450776D02*
G01*
X2386266Y450776D01*
X2544759Y339013D02*
G01*
X2640263Y302691D01*
X2544759Y339013D02*
G01*
X2640263Y375335D01*
X2608259Y316407D02*
G01*
X2608259Y361873D01*
X2544759Y459917D02*
G01*
X2544759Y414451D01*
X2585653Y409879D01*
X2581081Y414451D01*
X2576509Y428167D01*
X2576509Y441883D01*
X2581081Y455345D01*
X2590225Y464489D01*
X2603687Y469061D01*
X2612831Y469061D01*
X2626547Y464489D01*
X2635691Y455345D01*
X2640263Y441883D01*
X2640263Y428167D01*
X2635691Y414451D01*
X2631119Y409879D01*
X2621975Y405307D01*
X2798762Y339016D02*
G01*
X2894266Y302694D01*
X2798762Y339016D02*
G01*
X2894266Y375338D01*
X2862262Y316410D02*
G01*
X2862262Y361876D01*
X2812224Y459920D02*
G01*
X2803334Y455348D01*
X2798762Y441886D01*
X2798762Y432742D01*
X2803334Y419026D01*
X2816796Y409882D01*
X2839656Y405310D01*
X2862262Y405310D01*
X2880550Y409882D01*
X2889694Y419026D01*
X2894266Y432742D01*
X2894266Y437314D01*
X2889694Y450776D01*
X2880550Y459920D01*
X2866834Y464492D01*
X2862262Y464492D01*
X2848800Y459920D01*
X2839656Y450776D01*
X2835084Y437314D01*
X2835084Y432742D01*
X2839656Y419026D01*
X2848800Y409882D01*
X2862262Y405310D01*
X3052759Y339013D02*
G01*
X3148263Y302691D01*
X3052759Y339013D02*
G01*
X3148263Y375335D01*
X3116259Y316407D02*
G01*
X3116259Y361873D01*
X3052759Y469061D02*
G01*
X3148263Y423595D01*
X3052759Y405307D02*
G01*
X3052759Y469061D01*
X3306759Y357301D02*
G01*
X3306759Y311835D01*
X3347653Y307263D01*
X3343081Y311835D01*
X3338509Y325297D01*
X3338509Y339013D01*
X3343081Y352729D01*
X3352225Y361873D01*
X3365687Y366445D01*
X3374831Y366445D01*
X3388547Y361873D01*
X3397691Y352729D01*
X3402263Y339013D01*
X3402263Y325297D01*
X3397691Y311835D01*
X3393119Y307263D01*
X3383975Y302691D01*
X3306759Y396417D02*
G01*
X3402263Y432739D01*
X3306759Y469061D02*
G01*
X3402263Y432739D01*
X3560757Y302689D02*
G01*
X3656261Y302689D01*
X3560757Y302689D02*
G01*
X3560757Y343583D01*
X3565329Y357299D01*
X3569901Y361871D01*
X3578791Y366443D01*
X3587935Y366443D01*
X3597079Y361871D01*
X3601651Y357299D01*
X3606223Y343583D01*
X3606223Y302689D01*
X3606223Y334439D02*
G01*
X3656261Y366443D01*
X3574219Y459915D02*
G01*
X3565329Y450771D01*
X3560757Y437309D01*
X3560757Y419021D01*
X3565329Y405305D01*
X3574219Y396415D01*
X3583363Y396415D01*
X3592507Y400987D01*
X3597079Y405305D01*
X3601651Y414449D01*
X3610795Y441881D01*
X3615113Y450771D01*
X3619685Y455343D01*
X3628829Y459915D01*
X3642545Y459915D01*
X3651689Y450771D01*
X3656261Y437309D01*
X3656261Y419021D01*
X3651689Y405305D01*
X3642545Y396415D01*
X3560757Y521891D02*
G01*
X3656261Y521891D01*
X3560757Y489887D02*
G01*
X3560757Y553641D01*
X3837365Y370763D02*
G01*
X3828221Y366445D01*
X3819331Y357301D01*
X3814759Y348157D01*
X3814759Y329869D01*
X3819331Y320979D01*
X3828221Y311835D01*
X3837365Y307263D01*
X3851081Y302691D01*
X3873687Y302691D01*
X3887403Y307263D01*
X3896547Y311835D01*
X3905691Y320979D01*
X3910263Y329869D01*
X3910263Y348157D01*
X3905691Y357301D01*
X3896547Y366445D01*
X3887403Y370763D01*
X3873687Y370763D01*
X3873687Y348157D02*
G01*
X3873687Y370763D01*
X3814759Y400989D02*
G01*
X3910263Y400989D01*
X3814759Y400989D02*
G01*
X3910263Y464489D01*
X3814759Y464489D02*
G01*
X3910263Y464489D01*
X3814759Y494461D02*
G01*
X3910263Y494461D01*
X3814759Y494461D02*
G01*
X3814759Y526211D01*
X3819331Y539927D01*
X3828221Y549071D01*
X3837365Y553643D01*
X3851081Y558215D01*
X3873687Y558215D01*
X3887403Y553643D01*
X3896547Y549071D01*
X3905691Y539927D01*
X3910263Y526211D01*
X3910263Y494461D01*
X4068762Y302694D02*
G01*
X4164266Y339016D01*
X4068762Y375338D02*
G01*
X4164266Y339016D01*
X4068762Y405310D02*
G01*
X4164266Y405310D01*
X4068762Y435536D02*
G01*
X4164266Y435536D01*
X4068762Y435536D02*
G01*
X4164266Y499036D01*
X4068762Y499036D02*
G01*
X4164266Y499036D01*
X510758Y1291592D02*
G01*
X606262Y1291592D01*
X510758Y1291592D02*
G01*
X510758Y1323342D01*
X515330Y1337058D01*
X524220Y1346202D01*
X533364Y1350774D01*
X547080Y1355346D01*
X569686Y1355346D01*
X583402Y1350774D01*
X592546Y1346202D01*
X601690Y1337058D01*
X606262Y1323342D01*
X606262Y1291592D01*
X528792Y1385318D02*
G01*
X524220Y1394208D01*
X510758Y1407924D01*
X606262Y1407924D01*
X533364Y1442468D02*
G01*
X528792Y1442468D01*
X519902Y1447040D01*
X515330Y1451612D01*
X510758Y1460756D01*
X510758Y1478790D01*
X515330Y1487934D01*
X519902Y1492506D01*
X528792Y1497078D01*
X537936Y1497078D01*
X547080Y1492506D01*
X560796Y1483362D01*
X606262Y1437896D01*
X606262Y1501650D01*
X764755Y1332486D02*
G01*
X860259Y1332486D01*
X764755Y1332486D02*
G01*
X764755Y1364236D01*
X769327Y1377952D01*
X778217Y1387096D01*
X787361Y1391668D01*
X801077Y1396240D01*
X823683Y1396240D01*
X837399Y1391668D01*
X846543Y1387096D01*
X855687Y1377952D01*
X860259Y1364236D01*
X860259Y1332486D01*
X782789Y1426212D02*
G01*
X778217Y1435102D01*
X764755Y1448818D01*
X860259Y1448818D01*
X782789Y1478790D02*
G01*
X778217Y1487934D01*
X764755Y1501650D01*
X860259Y1501650D01*
X1018758Y1291592D02*
G01*
X1114262Y1291592D01*
X1018758Y1291592D02*
G01*
X1018758Y1323342D01*
X1023330Y1337058D01*
X1032220Y1346202D01*
X1041364Y1350774D01*
X1055080Y1355346D01*
X1077686Y1355346D01*
X1091402Y1350774D01*
X1100546Y1346202D01*
X1109690Y1337058D01*
X1114262Y1323342D01*
X1114262Y1291592D01*
X1036792Y1385318D02*
G01*
X1032220Y1394208D01*
X1018758Y1407924D01*
X1114262Y1407924D01*
X1018758Y1465328D02*
G01*
X1023330Y1451612D01*
X1036792Y1442468D01*
X1059652Y1437896D01*
X1073114Y1437896D01*
X1095974Y1442468D01*
X1109690Y1451612D01*
X1114262Y1465328D01*
X1114262Y1474218D01*
X1109690Y1487934D01*
X1095974Y1497078D01*
X1073114Y1501650D01*
X1059652Y1501650D01*
X1036792Y1497078D01*
X1023330Y1487934D01*
X1018758Y1474218D01*
X1018758Y1465328D01*
X1272758Y1348996D02*
G01*
X1368262Y1348996D01*
X1272758Y1348996D02*
G01*
X1272758Y1380746D01*
X1277330Y1394462D01*
X1286220Y1403606D01*
X1295364Y1408178D01*
X1309080Y1412750D01*
X1331686Y1412750D01*
X1345402Y1408178D01*
X1354546Y1403606D01*
X1363690Y1394462D01*
X1368262Y1380746D01*
X1368262Y1348996D01*
X1304508Y1501650D02*
G01*
X1318224Y1497078D01*
X1327114Y1488188D01*
X1331686Y1474472D01*
X1331686Y1469900D01*
X1327114Y1456184D01*
X1318224Y1447294D01*
X1304508Y1442722D01*
X1299936Y1442722D01*
X1286220Y1447294D01*
X1277330Y1456184D01*
X1272758Y1469900D01*
X1272758Y1474472D01*
X1277330Y1488188D01*
X1286220Y1497078D01*
X1304508Y1501650D01*
X1327114Y1501650D01*
X1349974Y1497078D01*
X1363690Y1488188D01*
X1368262Y1474472D01*
X1368262Y1465328D01*
X1363690Y1451612D01*
X1354546Y1447294D01*
X1526755Y1344424D02*
G01*
X1622259Y1344424D01*
X1526755Y1344424D02*
G01*
X1526755Y1376174D01*
X1531327Y1389890D01*
X1540217Y1399034D01*
X1549361Y1403606D01*
X1563077Y1408178D01*
X1585683Y1408178D01*
X1599399Y1403606D01*
X1608543Y1399034D01*
X1617687Y1389890D01*
X1622259Y1376174D01*
X1622259Y1344424D01*
X1526755Y1460756D02*
G01*
X1531327Y1447040D01*
X1540217Y1442722D01*
X1549361Y1442722D01*
X1558505Y1447040D01*
X1563077Y1456184D01*
X1567649Y1474472D01*
X1572221Y1487934D01*
X1581111Y1497078D01*
X1590255Y1501650D01*
X1603971Y1501650D01*
X1613115Y1497078D01*
X1617687Y1492506D01*
X1622259Y1479044D01*
X1622259Y1460756D01*
X1617687Y1447040D01*
X1613115Y1442722D01*
X1603971Y1438150D01*
X1590255Y1438150D01*
X1581111Y1442722D01*
X1572221Y1451612D01*
X1567649Y1465328D01*
X1563077Y1483616D01*
X1558505Y1492506D01*
X1549361Y1497078D01*
X1540217Y1497078D01*
X1531327Y1492506D01*
X1526755Y1479044D01*
X1526755Y1460756D01*
X1780758Y1344424D02*
G01*
X1876262Y1344424D01*
X1780758Y1344424D02*
G01*
X1780758Y1376174D01*
X1785330Y1389890D01*
X1794220Y1399034D01*
X1803364Y1403606D01*
X1817080Y1408178D01*
X1839686Y1408178D01*
X1853402Y1403606D01*
X1862546Y1399034D01*
X1871690Y1389890D01*
X1876262Y1376174D01*
X1876262Y1344424D01*
X1780758Y1501650D02*
G01*
X1876262Y1456184D01*
X1780758Y1438150D02*
G01*
X1780758Y1501650D01*
X2034758Y1348996D02*
G01*
X2130262Y1348996D01*
X2034758Y1348996D02*
G01*
X2034758Y1380746D01*
X2039330Y1394462D01*
X2048220Y1403606D01*
X2057364Y1408178D01*
X2071080Y1412750D01*
X2093686Y1412750D01*
X2107402Y1408178D01*
X2116546Y1403606D01*
X2125690Y1394462D01*
X2130262Y1380746D01*
X2130262Y1348996D01*
X2048220Y1497078D02*
G01*
X2039330Y1492506D01*
X2034758Y1479044D01*
X2034758Y1469900D01*
X2039330Y1456184D01*
X2052792Y1447294D01*
X2075652Y1442722D01*
X2098258Y1442722D01*
X2116546Y1447294D01*
X2125690Y1456184D01*
X2130262Y1469900D01*
X2130262Y1474472D01*
X2125690Y1488188D01*
X2116546Y1497078D01*
X2102830Y1501650D01*
X2098258Y1501650D01*
X2084796Y1497078D01*
X2075652Y1488188D01*
X2071080Y1474472D01*
X2071080Y1469900D01*
X2075652Y1456184D01*
X2084796Y1447294D01*
X2098258Y1442722D01*
X2288755Y1344424D02*
G01*
X2384259Y1344424D01*
X2288755Y1344424D02*
G01*
X2288755Y1376174D01*
X2293327Y1389890D01*
X2302217Y1399034D01*
X2311361Y1403606D01*
X2325077Y1408178D01*
X2347683Y1408178D01*
X2361399Y1403606D01*
X2370543Y1399034D01*
X2379687Y1389890D01*
X2384259Y1376174D01*
X2384259Y1344424D01*
X2288755Y1492506D02*
G01*
X2288755Y1447040D01*
X2329649Y1442722D01*
X2325077Y1447040D01*
X2320505Y1460756D01*
X2320505Y1474472D01*
X2325077Y1487934D01*
X2334221Y1497078D01*
X2347683Y1501650D01*
X2356827Y1501650D01*
X2370543Y1497078D01*
X2379687Y1487934D01*
X2384259Y1474472D01*
X2384259Y1460756D01*
X2379687Y1447040D01*
X2375115Y1442722D01*
X2365971Y1438150D01*
X2542758Y1339852D02*
G01*
X2638262Y1339852D01*
X2542758Y1339852D02*
G01*
X2542758Y1371602D01*
X2547330Y1385318D01*
X2556220Y1394462D01*
X2565364Y1399034D01*
X2579080Y1403606D01*
X2601686Y1403606D01*
X2615402Y1399034D01*
X2624546Y1394462D01*
X2633690Y1385318D01*
X2638262Y1371602D01*
X2638262Y1339852D01*
X2542758Y1479044D02*
G01*
X2606258Y1433578D01*
X2606258Y1501650D01*
X2542758Y1479044D02*
G01*
X2638262Y1479044D01*
X2796758Y1344424D02*
G01*
X2892262Y1344424D01*
X2796758Y1344424D02*
G01*
X2796758Y1376174D01*
X2801330Y1389890D01*
X2810220Y1399034D01*
X2819364Y1403606D01*
X2833080Y1408178D01*
X2855686Y1408178D01*
X2869402Y1403606D01*
X2878546Y1399034D01*
X2887690Y1389890D01*
X2892262Y1376174D01*
X2892262Y1344424D01*
X2796758Y1447040D02*
G01*
X2796758Y1497078D01*
X2833080Y1469900D01*
X2833080Y1483616D01*
X2837652Y1492506D01*
X2842224Y1497078D01*
X2855686Y1501650D01*
X2864830Y1501650D01*
X2878546Y1497078D01*
X2887690Y1487934D01*
X2892262Y1474472D01*
X2892262Y1460756D01*
X2887690Y1447040D01*
X2883118Y1442722D01*
X2873974Y1438150D01*
X3050755Y1344424D02*
G01*
X3146259Y1344424D01*
X3050755Y1344424D02*
G01*
X3050755Y1376174D01*
X3055327Y1389890D01*
X3064217Y1399034D01*
X3073361Y1403606D01*
X3087077Y1408178D01*
X3109683Y1408178D01*
X3123399Y1403606D01*
X3132543Y1399034D01*
X3141687Y1389890D01*
X3146259Y1376174D01*
X3146259Y1344424D01*
X3073361Y1442722D02*
G01*
X3068789Y1442722D01*
X3059899Y1447040D01*
X3055327Y1451612D01*
X3050755Y1460756D01*
X3050755Y1479044D01*
X3055327Y1487934D01*
X3059899Y1492506D01*
X3068789Y1497078D01*
X3077933Y1497078D01*
X3087077Y1492506D01*
X3100793Y1483616D01*
X3146259Y1438150D01*
X3146259Y1501650D01*
X3327364Y1314198D02*
G01*
X3318220Y1309880D01*
X3309330Y1300736D01*
X3304758Y1291592D01*
X3304758Y1273304D01*
X3309330Y1264414D01*
X3318220Y1255270D01*
X3327364Y1250698D01*
X3341080Y1246126D01*
X3363686Y1246126D01*
X3377402Y1250698D01*
X3386546Y1255270D01*
X3395690Y1264414D01*
X3400262Y1273304D01*
X3400262Y1291592D01*
X3395690Y1300736D01*
X3386546Y1309880D01*
X3377402Y1314198D01*
X3363686Y1314198D01*
X3363686Y1291592D02*
G01*
X3363686Y1314198D01*
X3304758Y1344424D02*
G01*
X3400262Y1344424D01*
X3304758Y1344424D02*
G01*
X3400262Y1407924D01*
X3304758Y1407924D02*
G01*
X3400262Y1407924D01*
X3304758Y1437896D02*
G01*
X3400262Y1437896D01*
X3304758Y1437896D02*
G01*
X3304758Y1469646D01*
X3309330Y1483362D01*
X3318220Y1492506D01*
X3327364Y1497078D01*
X3341080Y1501650D01*
X3363686Y1501650D01*
X3377402Y1497078D01*
X3386546Y1492506D01*
X3395690Y1483362D01*
X3400262Y1469646D01*
X3400262Y1437896D01*
X3558758Y1250698D02*
G01*
X3654262Y1250698D01*
X3558758Y1250698D02*
G01*
X3558758Y1291592D01*
X3563330Y1305308D01*
X3567902Y1309880D01*
X3576792Y1314452D01*
X3585936Y1314452D01*
X3595080Y1309880D01*
X3599652Y1305308D01*
X3604224Y1291592D01*
X3604224Y1250698D01*
X3604224Y1282448D02*
G01*
X3654262Y1314452D01*
X3572220Y1407924D02*
G01*
X3563330Y1398780D01*
X3558758Y1385318D01*
X3558758Y1367030D01*
X3563330Y1353314D01*
X3572220Y1344424D01*
X3581364Y1344424D01*
X3590508Y1348996D01*
X3595080Y1353314D01*
X3599652Y1362458D01*
X3608796Y1389890D01*
X3613114Y1398780D01*
X3617686Y1403352D01*
X3626830Y1407924D01*
X3640546Y1407924D01*
X3649690Y1398780D01*
X3654262Y1385318D01*
X3654262Y1367030D01*
X3649690Y1353314D01*
X3640546Y1344424D01*
X3558758Y1469900D02*
G01*
X3654262Y1469900D01*
X3558758Y1437896D02*
G01*
X3558758Y1501650D01*
X3812755Y1250698D02*
G01*
X3908259Y1250698D01*
X3812755Y1250698D02*
G01*
X3812755Y1291592D01*
X3817327Y1305308D01*
X3821899Y1309880D01*
X3830789Y1314452D01*
X3839933Y1314452D01*
X3849077Y1309880D01*
X3853649Y1305308D01*
X3858221Y1291592D01*
X3858221Y1250698D01*
X3858221Y1282448D02*
G01*
X3908259Y1314452D01*
X3812755Y1344424D02*
G01*
X3908259Y1407924D01*
X3812755Y1407924D02*
G01*
X3908259Y1344424D01*
X3812755Y1437896D02*
G01*
X3908259Y1437896D01*
X3812755Y1437896D02*
G01*
X3812755Y1469900D01*
X3817327Y1483362D01*
X3826217Y1492506D01*
X3835361Y1497078D01*
X3849077Y1501650D01*
X3871683Y1501650D01*
X3885399Y1497078D01*
X3894543Y1492506D01*
X3903687Y1483362D01*
X3908259Y1469900D01*
X3908259Y1437896D01*
X4066758Y1282448D02*
G01*
X4162262Y1282448D01*
X4066758Y1250698D02*
G01*
X4066758Y1314452D01*
X4066758Y1344424D02*
G01*
X4162262Y1407924D01*
X4066758Y1407924D02*
G01*
X4162262Y1344424D01*
X4066758Y1437896D02*
G01*
X4162262Y1437896D01*
X4066758Y1437896D02*
G01*
X4066758Y1469900D01*
X4071330Y1483362D01*
X4080220Y1492506D01*
X4089364Y1497078D01*
X4103080Y1501650D01*
X4125686Y1501650D01*
X4139402Y1497078D01*
X4148546Y1492506D01*
X4157690Y1483362D01*
X4162262Y1469900D01*
X4162262Y1437896D01*
D10*
X4672586Y698500D02*
G01*
X4781552Y698500D01*
X4672586Y698500D02*
G01*
X4672586Y745236D01*
X4677666Y760729D01*
X4683000Y766063D01*
X4693414Y771144D01*
X4703828Y771144D01*
X4714242Y766063D01*
X4719322Y760729D01*
X4724402Y745236D01*
X4724402Y698500D02*
G01*
X4724402Y745236D01*
X4729736Y760729D01*
X4734816Y766063D01*
X4745230Y771144D01*
X4760978Y771144D01*
X4771392Y766063D01*
X4776472Y760729D01*
X4781552Y745236D01*
X4781552Y698500D01*
X4672586Y805434D02*
G01*
X4781552Y805434D01*
X4708908Y839723D02*
G01*
X4760978Y839723D01*
X4776472Y845057D01*
X4781552Y855471D01*
X4781552Y870965D01*
X4776472Y881379D01*
X4760978Y896873D01*
X4708908Y896873D02*
G01*
X4781552Y896873D01*
X4740150Y931163D02*
G01*
X4740150Y993647D01*
X4729736Y993647D01*
X4719322Y988313D01*
X4714242Y983234D01*
X4708908Y972820D01*
X4708908Y957326D01*
X4714242Y946912D01*
X4724402Y936497D01*
X4740150Y931163D01*
X4750564Y931163D01*
X4766058Y936497D01*
X4776472Y946912D01*
X4781552Y957326D01*
X4781552Y972820D01*
X4776472Y983234D01*
X4766058Y993647D01*
X4672586Y1064260D02*
G01*
X4781552Y1064260D01*
X4672586Y1027937D02*
G01*
X4672586Y1100581D01*
X4708908Y1160779D02*
G01*
X4714242Y1150620D01*
X4724402Y1140205D01*
X4740150Y1134871D01*
X4750564Y1134871D01*
X4766058Y1140205D01*
X4776472Y1150620D01*
X4781552Y1160779D01*
X4781552Y1176528D01*
X4776472Y1186942D01*
X4766058Y1197355D01*
X4750564Y1202436D01*
X4740150Y1202436D01*
X4724402Y1197355D01*
X4714242Y1186942D01*
X4708908Y1176528D01*
X4708908Y1160779D01*
X4708908Y1262634D02*
G01*
X4714242Y1252220D01*
X4724402Y1242060D01*
X4740150Y1236726D01*
X4750564Y1236726D01*
X4766058Y1242060D01*
X4776472Y1252220D01*
X4781552Y1262634D01*
X4781552Y1278381D01*
X4776472Y1288795D01*
X4766058Y1299210D01*
X4750564Y1304289D01*
X4740150Y1304289D01*
X4724402Y1299210D01*
X4714242Y1288795D01*
X4708908Y1278381D01*
X4708908Y1262634D01*
X4672586Y1354073D02*
G01*
X4760978Y1354073D01*
X4776472Y1359407D01*
X4781552Y1369821D01*
X4781552Y1380236D01*
X4708908Y1338579D02*
G01*
X4708908Y1374902D01*
X4672586Y1414526D02*
G01*
X4781552Y1414526D01*
X4729736Y1414526D02*
G01*
X4714242Y1430020D01*
X4708908Y1440434D01*
X4708908Y1455928D01*
X4714242Y1466342D01*
X4729736Y1471676D01*
X4781552Y1471676D01*
X228600Y2464815D02*
G01*
X228600Y2355850D01*
X301244Y2464815D02*
G01*
X301244Y2355850D01*
X228600Y2413000D02*
G01*
X301244Y2413000D01*
X372110Y2464815D02*
G01*
X372110Y2355850D01*
X335534Y2464815D02*
G01*
X408431Y2464815D01*
D12*
X176021Y2083054D02*
G01*
X198628Y2083054D01*
X200913Y2103628D01*
X198628Y2101342D01*
X191770Y2099055D01*
X184912Y2099055D01*
X178307Y2101342D01*
X173736Y2105913D01*
X171450Y2112771D01*
X171450Y2117344D01*
X173736Y2123947D01*
X178307Y2128520D01*
X184912Y2130805D01*
X191770Y2130805D01*
X198628Y2128520D01*
X200913Y2126234D01*
X203200Y2121662D01*
X156463Y2083054D02*
G01*
X138176Y2130805D01*
X120142Y2083054D02*
G01*
X138176Y2130805D01*
X461263Y2094484D02*
G01*
X463550Y2089912D01*
X468121Y2085339D01*
X472694Y2083054D01*
X481584Y2083054D01*
X486155Y2085339D01*
X490728Y2089912D01*
X493013Y2094484D01*
X495300Y2101342D01*
X495300Y2112771D01*
X493013Y2119629D01*
X490728Y2123947D01*
X486155Y2128520D01*
X481584Y2130805D01*
X472694Y2130805D01*
X468121Y2128520D01*
X463550Y2123947D01*
X461263Y2119629D01*
X461263Y2112771D01*
X472694Y2112771D02*
G01*
X461263Y2112771D01*
X446278Y2083054D02*
G01*
X446278Y2130805D01*
X446278Y2083054D02*
G01*
X414273Y2130805D01*
X414273Y2083054D02*
G01*
X414273Y2130805D01*
X399287Y2083054D02*
G01*
X399287Y2130805D01*
X399287Y2083054D02*
G01*
X383539Y2083054D01*
X376681Y2085339D01*
X372110Y2089912D01*
X369823Y2094484D01*
X367537Y2101342D01*
X367537Y2112771D01*
X369823Y2119629D01*
X372110Y2123947D01*
X376681Y2128520D01*
X383539Y2130805D01*
X399287Y2130805D01*
D10*
X533400Y2007615D02*
G01*
X533400Y1898650D01*
X533400Y1898650D02*
G01*
X595629Y1898650D01*
X629920Y2007615D02*
G01*
X629920Y1898650D01*
X629920Y2007615D02*
G01*
X671576Y1898650D01*
X713231Y2007615D02*
G01*
X671576Y1898650D01*
X713231Y2007615D02*
G01*
X713231Y1898650D01*
X2616200Y2109215D02*
G01*
X2616200Y2000250D01*
X2616200Y2109215D02*
G01*
X2662936Y2109215D01*
X2678429Y2104136D01*
X2683763Y2098802D01*
X2688843Y2088387D01*
X2688843Y2077973D01*
X2683763Y2067560D01*
X2678429Y2062479D01*
X2662936Y2057400D01*
X2616200Y2057400D01*
X2652522Y2057400D02*
G01*
X2688843Y2000250D01*
X2723134Y2109215D02*
G01*
X2723134Y2000250D01*
X2723134Y2109215D02*
G01*
X2764790Y2000250D01*
X2806445Y2109215D02*
G01*
X2764790Y2000250D01*
X2806445Y2109215D02*
G01*
X2806445Y2000250D01*
X4455922Y333755D02*
G01*
X4466336Y344170D01*
X4471415Y359663D01*
X4471415Y380492D01*
X4466336Y395986D01*
X4455922Y406400D01*
X4445508Y406400D01*
X4435093Y401320D01*
X4429759Y395986D01*
X4424679Y385571D01*
X4414265Y354329D01*
X4409186Y344170D01*
X4403852Y338836D01*
X4393438Y333755D01*
X4377943Y333755D01*
X4367529Y344170D01*
X4362450Y359663D01*
X4362450Y380492D01*
X4367529Y395986D01*
X4377943Y406400D01*
X4471415Y299465D02*
G01*
X4362450Y273304D01*
X4471415Y247395D02*
G01*
X4362450Y273304D01*
X4471415Y247395D02*
G01*
X4362450Y221487D01*
X4471415Y195579D02*
G01*
X4362450Y221487D01*
X4450588Y161289D02*
G01*
X4455922Y150876D01*
X4471415Y135128D01*
X4362450Y135128D01*
D13*
X2654259Y12760D02*
G01*
X2717759Y76260D01*
X2781259Y12760D01*
X495274Y266748D02*
G01*
X431774Y203248D01*
X431774Y76248D01*
X495274Y12748D01*
X749274Y266748D02*
G01*
X685774Y203248D01*
X622274Y266748D01*
X1003274Y266748D02*
G01*
X939774Y203248D01*
X876274Y266748D01*
X1257228Y266748D02*
G01*
X1193751Y203248D01*
X1130251Y266748D01*
X1511223Y266748D02*
G01*
X1447723Y203248D01*
X1384223Y266748D01*
X1765223Y266748D02*
G01*
X1701723Y203248D01*
X1638223Y266748D01*
X2019223Y266748D02*
G01*
X1955723Y203248D01*
X1892223Y266748D01*
X2273223Y266748D02*
G01*
X2209723Y203248D01*
X2146223Y266748D01*
X2527223Y266748D02*
G01*
X2463723Y203248D01*
X2400223Y266748D01*
X2781223Y266748D02*
G01*
X2717723Y203248D01*
X2654223Y266748D01*
X3035223Y266748D02*
G01*
X2971723Y203248D01*
X2908223Y266748D01*
X3289223Y266748D02*
G01*
X3225723Y203248D01*
X3162223Y266748D01*
X3543251Y266748D02*
G01*
X3479728Y203248D01*
X3416223Y266748D01*
X3797259Y266748D02*
G01*
X3733759Y203248D01*
X3670259Y266748D01*
X4051259Y266748D02*
G01*
X3987759Y203248D01*
X3924259Y266748D01*
X4178259Y12748D02*
G01*
X4241759Y76248D01*
X4241759Y203248D01*
X4178259Y266748D01*
X3924259Y12748D02*
G01*
X3987759Y76248D01*
X4051259Y12748D01*
X3670259Y12748D02*
G01*
X3733759Y76248D01*
X3797259Y12748D01*
X3416223Y12748D02*
G01*
X3479728Y76248D01*
X3543251Y12748D01*
X1130251Y12748D02*
G01*
X1193751Y76248D01*
X1257228Y12748D01*
X622274Y12748D02*
G01*
X685774Y76248D01*
X749274Y12748D01*
X876274Y12748D02*
G01*
X939774Y76248D01*
X1003274Y12748D01*
X1384223Y12748D02*
G01*
X1447723Y76248D01*
X1511223Y12748D01*
X1638223Y12748D02*
G01*
X1701723Y76248D01*
X1765223Y12748D01*
X1892223Y12748D02*
G01*
X1955723Y76248D01*
X2019223Y12748D01*
X2146223Y12748D02*
G01*
X2209723Y76248D01*
X2273223Y12748D01*
X2400223Y12748D02*
G01*
X2463723Y76248D01*
X2527223Y12748D01*
X2908223Y12748D02*
G01*
X2971723Y76248D01*
X3035223Y12748D01*
X3162223Y12748D02*
G01*
X3225723Y76248D01*
X3289223Y12748D01*
X3416223Y12748D02*
G01*
X3479728Y76248D01*
X3543251Y12748D01*
X3670259Y12748D01*
X3733759Y76248D01*
X3797259Y12748D01*
X3924259Y12748D01*
X3987759Y76248D01*
X4051259Y12748D01*
X4178259Y12748D01*
X4241759Y76248D01*
X4241759Y203248D01*
X4178259Y266748D01*
X4051259Y266748D01*
X3987759Y203248D01*
X3924259Y266748D01*
X3797259Y266748D01*
X3733759Y203248D01*
X3670259Y266748D01*
X3543251Y266748D01*
X3479728Y203248D01*
X3416223Y266748D01*
X3289223Y266748D01*
X3225723Y203248D01*
X3162223Y266748D01*
X3035223Y266748D01*
X2971723Y203248D01*
X2908223Y266748D01*
X2781223Y266748D01*
X2717723Y203248D01*
X2654223Y266748D01*
X2527223Y266748D01*
X2463723Y203248D01*
X2400223Y266748D01*
X2273223Y266748D01*
X2209723Y203248D01*
X2146223Y266748D01*
X2019223Y266748D01*
X1955723Y203248D01*
X1892223Y266748D01*
X1765223Y266748D01*
X1701723Y203248D01*
X1638223Y266748D01*
X1511223Y266748D01*
X1447723Y203248D01*
X1384223Y266748D01*
X1257228Y266748D01*
X1193751Y203248D01*
X1130251Y266748D01*
X1003274Y266748D01*
X939774Y203248D01*
X876274Y266748D01*
X749274Y266748D01*
X685774Y203248D01*
X622274Y266748D01*
X495274Y266748D01*
X431774Y203248D01*
X431774Y76248D01*
X495274Y12748D01*
X2019325Y1790656D02*
G01*
X1955825Y1727156D01*
X1892325Y1790656D01*
X1257366Y1790666D02*
G01*
X1193863Y1727166D01*
X1130338Y1790666D01*
X1003325Y1790666D01*
X939825Y1727166D01*
X876325Y1790666D01*
X749325Y1790666D01*
X685825Y1727166D01*
X622325Y1790666D01*
X495325Y1790666D01*
X431825Y1727166D01*
X431825Y1600166D01*
X495325Y1536666D01*
X622325Y1536666D01*
X685825Y1600166D01*
X749325Y1536666D01*
X876325Y1536666D01*
X939825Y1600166D01*
X1003325Y1536666D01*
X1130338Y1536666D01*
X1193863Y1600166D01*
X1257366Y1536666D01*
X1384366Y1536666D01*
X1447866Y1600166D01*
X1511366Y1536666D01*
X1638366Y1536666D01*
X1701866Y1600166D01*
X1765366Y1536666D01*
X1892366Y1536666D01*
X1955866Y1600166D01*
X2019366Y1536666D01*
X2146366Y1536666D01*
X2209866Y1600166D01*
X2273366Y1536666D01*
X2400366Y1536666D01*
X2463866Y1600166D01*
X2527366Y1536666D01*
X2654366Y1536666D01*
X2717866Y1600166D01*
X2781366Y1536666D01*
X2908366Y1536666D01*
X2971866Y1600166D01*
X3035366Y1536666D01*
X3162366Y1536666D01*
X3225866Y1600166D01*
X3289366Y1536666D01*
X3416360Y1536666D01*
X3479838Y1600166D01*
X3543338Y1536666D01*
X3670315Y1536666D01*
X3733815Y1600166D01*
X3797315Y1536666D01*
X3924315Y1536666D01*
X3987815Y1600166D01*
X4051315Y1536666D01*
X4178315Y1536666D01*
X4241815Y1600166D01*
X4241815Y1727166D01*
X4178315Y1790666D01*
X3543338Y1790666D02*
G01*
X3479838Y1727166D01*
X3416360Y1790666D01*
X4051315Y1790666D02*
G01*
X3987815Y1727166D01*
X3924315Y1790666D01*
X3797315Y1790666D02*
G01*
X3733815Y1727166D01*
X3670315Y1790666D01*
X3289366Y1790666D02*
G01*
X3225866Y1727166D01*
X3162366Y1790666D01*
X3035366Y1790666D02*
G01*
X2971866Y1727166D01*
X2908366Y1790666D01*
X2781366Y1790666D02*
G01*
X2717866Y1727166D01*
X2654366Y1790666D01*
X2527366Y1790666D02*
G01*
X2463866Y1727166D01*
X2400366Y1790666D01*
X2273366Y1790666D02*
G01*
X2209866Y1727166D01*
X2146366Y1790666D01*
X1765366Y1790666D02*
G01*
X1701866Y1727166D01*
X1638366Y1790666D01*
X1511366Y1790666D02*
G01*
X1447866Y1727166D01*
X1384366Y1790666D01*
X566420Y1181100D02*
G01*
X566420Y1155710D01*
X177800Y1181100D02*
G01*
X25400Y1181100D01*
X25400Y622300D01*
X566420Y622300D01*
X566420Y643204D01*
X177800Y1181100D02*
G01*
X566420Y1181100D01*
X566420Y1155710D02*
G01*
X566420Y647700D01*
D10*
X170179Y1798317D02*
G01*
X4503412Y1798317D01*
X4503412Y5079D01*
X170179Y5079D01*
X170179Y1798317D01*
D14*
X5067300Y609600D02*
G01*
X4813300Y609600D01*
X4813300Y1625600D01*
X5067300Y1625600D01*
X5067300Y1435100D01*
D15*
X5067300Y609600D02*
G01*
X5067300Y1435100D01*
D16*
X5613Y2489098D02*
G01*
X571525Y2489098D01*
X571525Y2159000D01*
X5613Y2159000D01*
X5613Y2489098D01*
X104800Y2118487D02*
G01*
X504799Y2118487D01*
X504799Y1818487D01*
X104800Y1818487D01*
X104800Y2118487D01*
X2517800Y2131187D02*
G01*
X2917799Y2131187D01*
X2917799Y1831187D01*
X2517800Y1831187D01*
X2517800Y2131187D01*
D15*
X4775200Y12700D02*
G01*
X4775200Y330200D01*
D14*
X4775200Y12700D02*
G01*
X4521200Y12700D01*
X4521200Y520700D01*
X4775200Y520700D01*
X4775200Y330200D01*
D16*
X4105313Y2277399D02*
G01*
X4055229Y2277399D01*
X4055229Y2277381D01*
X4105313Y1837400D02*
G01*
X4055330Y1837400D01*
X4055330Y1837418D01*
X4775311Y1837400D02*
G01*
X4105313Y1837400D01*
X4775311Y1837400D02*
G01*
X4775311Y2277399D01*
X4105313Y2277399D01*
X4053880Y1797400D02*
G01*
X4815314Y1797400D01*
X4815314Y2317399D01*
X4053880Y2317399D01*
G75*
G01*
X4053881Y2317399D02*
G03*
X4053881Y1797401I0J-259999D01*
G75*
G01*
X4055229Y2277382D02*
G03*
X4055331Y1837418I51J-219982D01*
M02*
