G04 Layer: BottomSilkscreenLayer*
G04 EasyEDA v6.5.22, 2023-03-28 23:00:35*
G04 5c3957acffbf4fda84b53d144d602fd1,1f4b798e1f424c36b07c5063a1ef9d4e,10*
G04 Gerber Generator version 0.2*
G04 Scale: 100 percent, Rotated: No, Reflected: No *
G04 Dimensions in millimeters *
G04 leading zeros omitted , absolute positions ,4 integer and 5 decimal *
%FSLAX45Y45*%
%MOMM*%

%ADD10C,0.4000*%
%ADD11C,0.1524*%
%ADD12C,0.2032*%
%ADD13C,0.2000*%
%ADD14C,0.2540*%
%ADD15C,0.2030*%
%ADD16C,0.0148*%

%LPD*%
G36*
X385826Y1414780D02*
G01*
X356260Y1414170D01*
X341731Y1413560D01*
X327660Y1412697D01*
X301498Y1410309D01*
X289864Y1408785D01*
X279400Y1407058D01*
X270306Y1405128D01*
X260045Y1402232D01*
X246532Y1397711D01*
X233222Y1392732D01*
X221792Y1387856D01*
X197815Y1375460D01*
X198311Y1368094D01*
X267411Y1368094D01*
X271272Y1370177D01*
X284327Y1375460D01*
X292506Y1377594D01*
X302615Y1379474D01*
X314350Y1381048D01*
X327456Y1382369D01*
X341680Y1383385D01*
X356666Y1384096D01*
X372262Y1384503D01*
X403961Y1384350D01*
X419557Y1383741D01*
X434593Y1382826D01*
X448818Y1381556D01*
X461975Y1379982D01*
X474218Y1377950D01*
X487324Y1375257D01*
X501396Y1372006D01*
X530961Y1364081D01*
X553212Y1357325D01*
X567537Y1352600D01*
X580999Y1347825D01*
X593344Y1343152D01*
X604316Y1338630D01*
X613460Y1334312D01*
X620623Y1330401D01*
X624992Y1327505D01*
X628599Y1324457D01*
X631494Y1320952D01*
X633628Y1316482D01*
X635000Y1310741D01*
X635711Y1303274D01*
X635762Y1293774D01*
X635101Y1281734D01*
X633780Y1266901D01*
X629310Y1227023D01*
X619963Y1152347D01*
X616762Y1128217D01*
X614172Y1110843D01*
X612140Y1100124D01*
X611378Y1097280D01*
X610666Y1096060D01*
X610412Y1096111D01*
X609904Y1097381D01*
X609295Y1104950D01*
X609041Y1119073D01*
X609650Y1166926D01*
X612851Y1313484D01*
X573278Y1331468D01*
X562457Y1335938D01*
X551332Y1340256D01*
X539800Y1344269D01*
X528015Y1348079D01*
X515924Y1351635D01*
X503631Y1354937D01*
X491083Y1357985D01*
X478332Y1360779D01*
X452424Y1365554D01*
X426008Y1369263D01*
X412699Y1370736D01*
X399338Y1371904D01*
X372668Y1373378D01*
X346202Y1373733D01*
X333095Y1373428D01*
X320090Y1372870D01*
X307289Y1372006D01*
X294640Y1370787D01*
X269087Y1367586D01*
X267411Y1368094D01*
X198311Y1368094D01*
X202234Y1311402D01*
X204063Y1289862D01*
X208838Y1242669D01*
X213258Y1204417D01*
X220217Y1150924D01*
X228041Y1095959D01*
X234442Y1054760D01*
X241147Y1014323D01*
X248970Y970635D01*
X252323Y954176D01*
X253796Y948385D01*
X255219Y944016D01*
X256641Y940816D01*
X258064Y938733D01*
X259638Y937564D01*
X261416Y937158D01*
X263398Y937310D01*
X267462Y938377D01*
X272542Y939241D01*
X288137Y940816D01*
X309829Y942136D01*
X336296Y943152D01*
X366115Y943914D01*
X398018Y944321D01*
X438607Y944422D01*
X470052Y944067D01*
X499059Y943406D01*
X524306Y942340D01*
X544372Y940917D01*
X565099Y939037D01*
X581609Y937920D01*
X594106Y937463D01*
X602996Y937768D01*
X606196Y938123D01*
X608584Y938733D01*
X610260Y939444D01*
X611225Y940409D01*
X612038Y942543D01*
X615442Y956868D01*
X619302Y975918D01*
X629005Y1028192D01*
X640892Y1097381D01*
X650036Y1155192D01*
X653440Y1178966D01*
X656539Y1204112D01*
X659536Y1233119D01*
X662127Y1262329D01*
X664006Y1288186D01*
X667308Y1343964D01*
X624586Y1365199D01*
X615594Y1369364D01*
X606145Y1373378D01*
X596392Y1377238D01*
X586181Y1380998D01*
X575614Y1384604D01*
X553364Y1391412D01*
X529488Y1397609D01*
X504037Y1403350D01*
X476910Y1408480D01*
X464870Y1410462D01*
X453796Y1411833D01*
X441655Y1412951D01*
X414832Y1414373D01*
G37*
G36*
X435508Y933094D02*
G01*
X410209Y932687D01*
X382778Y931875D01*
X333552Y929436D01*
X306882Y927608D01*
X282956Y925525D01*
X262940Y923239D01*
X249580Y921258D01*
X232460Y918260D01*
X216814Y915009D01*
X202590Y911504D01*
X189941Y907745D01*
X178765Y903782D01*
X169113Y899566D01*
X161036Y895146D01*
X157581Y892860D01*
X154533Y890524D01*
X151892Y888136D01*
X149606Y885698D01*
X147777Y883208D01*
X146354Y880668D01*
X145288Y878078D01*
X144678Y875436D01*
X144475Y872794D01*
X144729Y869086D01*
X145491Y865530D01*
X146761Y862177D01*
X148691Y858875D01*
X151231Y855675D01*
X154432Y852474D01*
X158394Y849274D01*
X163169Y846023D01*
X168706Y842721D01*
X182422Y835609D01*
X210058Y823112D01*
X215798Y820877D01*
X219608Y819912D01*
X221945Y820267D01*
X223367Y821842D01*
X225806Y830173D01*
X227787Y833272D01*
X231038Y836066D01*
X235610Y838555D01*
X241604Y840841D01*
X249275Y842873D01*
X258622Y844702D01*
X269798Y846277D01*
X282905Y847699D01*
X298094Y848918D01*
X335178Y850950D01*
X381965Y852474D01*
X427532Y853389D01*
X467359Y853541D01*
X503529Y852982D01*
X535990Y851763D01*
X564692Y849884D01*
X577646Y848664D01*
X589584Y847293D01*
X600557Y845769D01*
X610565Y844042D01*
X619556Y842213D01*
X627583Y840181D01*
X634593Y837996D01*
X640588Y835609D01*
X645566Y833119D01*
X649478Y830427D01*
X652373Y827633D01*
X654253Y824636D01*
X656742Y818032D01*
X659841Y815390D01*
X664972Y814832D01*
X672846Y815949D01*
X680618Y818083D01*
X690321Y821486D01*
X700735Y825753D01*
X710641Y830427D01*
X718769Y835101D01*
X725322Y840079D01*
X730300Y845312D01*
X733602Y850696D01*
X735279Y856183D01*
X735228Y861771D01*
X733450Y867308D01*
X729945Y872744D01*
X726389Y876604D01*
X721969Y880364D01*
X716737Y884072D01*
X710742Y887628D01*
X703935Y891082D01*
X696315Y894435D01*
X687984Y897686D01*
X678840Y900836D01*
X658317Y906780D01*
X646887Y909574D01*
X621893Y914806D01*
X594055Y919581D01*
X563372Y923848D01*
X529945Y927608D01*
X493776Y930859D01*
X474726Y932281D01*
X457454Y932942D01*
G37*
G36*
X467258Y758545D02*
G01*
X428548Y756564D01*
X421589Y755853D01*
X415899Y754938D01*
X411226Y753770D01*
X407416Y752246D01*
X404368Y750366D01*
X401828Y748080D01*
X399694Y745286D01*
X396595Y739546D01*
X395579Y734415D01*
X396384Y730199D01*
X415137Y730199D01*
X415950Y735126D01*
X418592Y738530D01*
X423570Y740664D01*
X431292Y741934D01*
X439928Y742391D01*
X444804Y741070D01*
X446938Y737311D01*
X447395Y730199D01*
X446938Y723138D01*
X444804Y719328D01*
X439928Y718007D01*
X431292Y718464D01*
X423570Y719734D01*
X418592Y721918D01*
X415950Y725271D01*
X415137Y730199D01*
X396384Y730199D01*
X396646Y728827D01*
X403148Y714502D01*
X404266Y710031D01*
X403098Y707288D01*
X399745Y705408D01*
X397052Y703122D01*
X394817Y699008D01*
X393344Y693572D01*
X392985Y689660D01*
X412648Y689660D01*
X413207Y696315D01*
X415645Y700176D01*
X420878Y701903D01*
X430022Y702310D01*
X439166Y701903D01*
X444449Y700176D01*
X446836Y696315D01*
X447395Y689660D01*
X446836Y683006D01*
X444449Y679145D01*
X439166Y677418D01*
X430022Y677011D01*
X420878Y677418D01*
X415645Y679145D01*
X413207Y683006D01*
X412648Y689660D01*
X392985Y689660D01*
X392785Y687476D01*
X393039Y682853D01*
X393801Y678789D01*
X395122Y675233D01*
X397052Y672134D01*
X399592Y669493D01*
X402894Y667308D01*
X406908Y665530D01*
X411683Y664108D01*
X417322Y663041D01*
X423824Y662330D01*
X431241Y661924D01*
X467258Y661771D01*
G37*
G36*
X806094Y758088D02*
G01*
X799134Y757834D01*
X792683Y757224D01*
X786790Y756107D01*
X781405Y754634D01*
X776579Y752703D01*
X772363Y750417D01*
X768756Y747725D01*
X765759Y744728D01*
X763371Y741324D01*
X761695Y737565D01*
X760628Y733450D01*
X760272Y729030D01*
X760670Y724255D01*
X770534Y724255D01*
X770940Y730504D01*
X772718Y737819D01*
X775208Y742848D01*
X779627Y745947D01*
X786841Y747522D01*
X797864Y747928D01*
X819861Y747928D01*
X819861Y707390D01*
X797864Y707390D01*
X789686Y707847D01*
X782980Y709218D01*
X777748Y711504D01*
X773938Y714806D01*
X771550Y719023D01*
X770534Y724255D01*
X760670Y724255D01*
X760882Y721715D01*
X762762Y715314D01*
X765759Y709879D01*
X769975Y705408D01*
X775360Y701852D01*
X781913Y699312D01*
X789533Y697788D01*
X798322Y697280D01*
X810666Y696976D01*
X814527Y696264D01*
X817118Y694994D01*
X818692Y692861D01*
X819505Y689711D01*
X819810Y685342D01*
X819861Y679551D01*
X820267Y672642D01*
X821334Y667004D01*
X822909Y663194D01*
X824839Y661771D01*
X825906Y662686D01*
X826871Y665276D01*
X827735Y669442D01*
X828446Y675081D01*
X829462Y690321D01*
X829818Y709930D01*
X829818Y758088D01*
G37*
G36*
X720547Y758088D02*
G01*
X713435Y757783D01*
X706780Y756869D01*
X700735Y755396D01*
X695248Y753465D01*
X690372Y751078D01*
X686155Y748233D01*
X682599Y745032D01*
X679754Y741527D01*
X677672Y737717D01*
X676351Y733704D01*
X675792Y729488D01*
X676008Y725779D01*
X687019Y725779D01*
X687324Y731367D01*
X688594Y736447D01*
X690829Y740410D01*
X694690Y743407D01*
X700684Y745794D01*
X708101Y747369D01*
X716178Y747928D01*
X727303Y747623D01*
X730707Y746861D01*
X732993Y745388D01*
X734415Y742950D01*
X735126Y739343D01*
X735431Y734314D01*
X735431Y707390D01*
X713181Y707390D01*
X701344Y707796D01*
X694182Y709574D01*
X690168Y713435D01*
X687832Y720140D01*
X687019Y725779D01*
X676008Y725779D01*
X677214Y720699D01*
X679196Y716178D01*
X682142Y711657D01*
X686054Y707136D01*
X696214Y696772D01*
X685647Y679297D01*
X681939Y672490D01*
X679602Y666902D01*
X678942Y663194D01*
X680008Y661771D01*
X682802Y663194D01*
X686663Y667004D01*
X691184Y672642D01*
X701598Y688086D01*
X707237Y693521D01*
X713486Y696417D01*
X720953Y697280D01*
X728827Y696772D01*
X733196Y694486D01*
X735076Y689152D01*
X735838Y672642D01*
X736904Y667004D01*
X738479Y663194D01*
X740410Y661771D01*
X741476Y662686D01*
X742442Y665276D01*
X743305Y669442D01*
X744016Y675081D01*
X745032Y690321D01*
X745388Y709930D01*
X745388Y758088D01*
G37*
G36*
X618744Y758088D02*
G01*
X614172Y757682D01*
X609498Y756615D01*
X604875Y754888D01*
X600252Y752602D01*
X595833Y749808D01*
X591667Y746556D01*
X587756Y742899D01*
X584250Y738936D01*
X581202Y734720D01*
X578662Y730300D01*
X576783Y725779D01*
X575513Y721207D01*
X574751Y715365D01*
X574551Y709726D01*
X586232Y709726D01*
X586435Y715670D01*
X587146Y721461D01*
X588416Y726897D01*
X590245Y731875D01*
X592632Y736142D01*
X595528Y739546D01*
X600608Y743204D01*
X606602Y745744D01*
X613105Y747217D01*
X619861Y747623D01*
X626516Y746963D01*
X632815Y745236D01*
X638352Y742492D01*
X642823Y738682D01*
X646125Y733450D01*
X648716Y726287D01*
X650392Y717905D01*
X651052Y709066D01*
X650646Y702919D01*
X649630Y697179D01*
X647954Y691896D01*
X645718Y687120D01*
X643026Y682904D01*
X639826Y679196D01*
X636270Y676097D01*
X632358Y673608D01*
X628192Y671779D01*
X623773Y670610D01*
X619252Y670153D01*
X614578Y670458D01*
X609904Y671525D01*
X605282Y673404D01*
X600659Y676097D01*
X596239Y679704D01*
X593242Y683158D01*
X590753Y687476D01*
X588822Y692454D01*
X587451Y697941D01*
X586536Y703732D01*
X586232Y709726D01*
X574548Y709625D01*
X574903Y704088D01*
X575767Y698703D01*
X577189Y693521D01*
X579069Y688594D01*
X581406Y684022D01*
X584149Y679704D01*
X587349Y675843D01*
X590905Y672338D01*
X594817Y669239D01*
X599033Y666648D01*
X603605Y664565D01*
X608431Y663041D01*
X613460Y662127D01*
X618744Y661771D01*
X623773Y662076D01*
X628599Y662838D01*
X633120Y664108D01*
X637336Y665784D01*
X641299Y667918D01*
X644956Y670458D01*
X648309Y673303D01*
X651306Y676503D01*
X654050Y679958D01*
X656386Y683717D01*
X658368Y687679D01*
X659993Y691794D01*
X661263Y696112D01*
X662178Y700582D01*
X662635Y705154D01*
X662686Y709726D01*
X662381Y714400D01*
X661568Y719074D01*
X660349Y723696D01*
X658723Y728268D01*
X656590Y732739D01*
X653999Y737057D01*
X650900Y741273D01*
X647293Y745286D01*
X640842Y750824D01*
X633882Y754837D01*
X626516Y757275D01*
G37*
G36*
X524103Y758088D02*
G01*
X510590Y757732D01*
X500938Y756716D01*
X495503Y755142D01*
X494588Y753008D01*
X497738Y751027D01*
X503986Y749452D01*
X512419Y748334D01*
X522224Y747928D01*
X546760Y747928D01*
X546709Y724357D01*
X546354Y719988D01*
X545439Y716788D01*
X543763Y714603D01*
X540918Y713181D01*
X536752Y712368D01*
X523138Y711555D01*
X499567Y710641D01*
X546760Y706831D01*
X546760Y684326D01*
X547116Y675589D01*
X548182Y668426D01*
X549757Y663549D01*
X551688Y661771D01*
X552754Y662686D01*
X553720Y665276D01*
X554583Y669442D01*
X555904Y682091D01*
X556564Y699617D01*
X556666Y758088D01*
G37*
G36*
X149453Y758088D02*
G01*
X129743Y757732D01*
X122783Y757275D01*
X117551Y756564D01*
X113842Y755599D01*
X111404Y754227D01*
X110083Y752551D01*
X109728Y750468D01*
X110642Y747166D01*
X113436Y744778D01*
X118110Y743356D01*
X124612Y742899D01*
X139496Y742899D01*
X139547Y689914D01*
X139801Y680313D01*
X140258Y673150D01*
X141071Y668121D01*
X142290Y664819D01*
X144068Y662889D01*
X146405Y662025D01*
X149453Y661771D01*
X152501Y662025D01*
X154838Y662889D01*
X156565Y664819D01*
X157835Y668121D01*
X158648Y673150D01*
X159105Y680313D01*
X159359Y702310D01*
X159359Y742899D01*
X174294Y742899D01*
X180797Y743356D01*
X185470Y744778D01*
X188264Y747166D01*
X189179Y750468D01*
X188772Y752551D01*
X187452Y754227D01*
X185064Y755599D01*
X181305Y756564D01*
X176072Y757275D01*
X169164Y757732D01*
G37*
G36*
X336397Y757986D02*
G01*
X332232Y757732D01*
X328117Y757072D01*
X324104Y755954D01*
X320243Y754532D01*
X316484Y752703D01*
X312877Y750519D01*
X309524Y748080D01*
X306324Y745286D01*
X303377Y742238D01*
X300685Y738886D01*
X298297Y735330D01*
X296214Y731570D01*
X294487Y727557D01*
X293065Y723392D01*
X292049Y719023D01*
X291439Y714552D01*
X291287Y709930D01*
X308356Y709930D01*
X309168Y715670D01*
X311302Y721868D01*
X314452Y727811D01*
X318312Y732739D01*
X322580Y736752D01*
X326542Y739698D01*
X330352Y741578D01*
X334111Y742340D01*
X338023Y742086D01*
X342239Y740765D01*
X346811Y738378D01*
X351942Y734974D01*
X355549Y731875D01*
X358394Y728167D01*
X360527Y724052D01*
X361950Y719582D01*
X362762Y714857D01*
X362966Y710031D01*
X362559Y705154D01*
X361594Y700328D01*
X360019Y695706D01*
X357987Y691388D01*
X355498Y687425D01*
X352501Y683920D01*
X349097Y681075D01*
X345287Y678891D01*
X341071Y677468D01*
X336499Y677011D01*
X331774Y677824D01*
X326898Y680110D01*
X322173Y683615D01*
X317804Y688035D01*
X313994Y693166D01*
X311048Y698703D01*
X309067Y704392D01*
X308356Y709930D01*
X291287Y709930D01*
X291541Y705154D01*
X292252Y700379D01*
X293522Y695452D01*
X295300Y690524D01*
X298043Y684631D01*
X301294Y679450D01*
X304901Y674827D01*
X308914Y670915D01*
X313232Y667613D01*
X317804Y665022D01*
X322630Y663092D01*
X327660Y661822D01*
X332790Y661263D01*
X338023Y661365D01*
X343357Y662228D01*
X348640Y663752D01*
X353872Y666038D01*
X359054Y669036D01*
X364083Y672744D01*
X368960Y677265D01*
X373430Y681990D01*
X376885Y686104D01*
X379425Y689914D01*
X381101Y693674D01*
X382016Y697687D01*
X382320Y702208D01*
X382016Y707542D01*
X381304Y713994D01*
X379272Y724052D01*
X375970Y732790D01*
X371398Y740359D01*
X365506Y746658D01*
X361492Y749858D01*
X357428Y752449D01*
X353263Y754532D01*
X349046Y756158D01*
X344830Y757224D01*
X340614Y757834D01*
G37*
G36*
X235813Y757936D02*
G01*
X230581Y757580D01*
X225348Y756564D01*
X220217Y754888D01*
X215138Y752551D01*
X210261Y749503D01*
X205587Y745845D01*
X201676Y742188D01*
X198526Y738733D01*
X196088Y735228D01*
X194259Y731469D01*
X192989Y727252D01*
X192227Y722426D01*
X191770Y716686D01*
X191669Y710031D01*
X209753Y710031D01*
X210464Y716229D01*
X212191Y722172D01*
X215036Y727760D01*
X218948Y732739D01*
X223418Y736701D01*
X228193Y739902D01*
X232664Y742086D01*
X236372Y742899D01*
X240842Y742035D01*
X245516Y739698D01*
X250088Y736142D01*
X254355Y731672D01*
X258064Y726541D01*
X261010Y721004D01*
X262991Y715365D01*
X263652Y709930D01*
X262940Y704240D01*
X260959Y698500D01*
X257911Y692962D01*
X254050Y687882D01*
X249580Y683514D01*
X244703Y680059D01*
X239623Y677824D01*
X234645Y677011D01*
X229057Y677722D01*
X224078Y679856D01*
X219760Y683107D01*
X216154Y687324D01*
X213309Y692353D01*
X211226Y697941D01*
X210058Y703884D01*
X209753Y710031D01*
X191668Y709930D01*
X191770Y703173D01*
X192227Y697433D01*
X192989Y692607D01*
X194259Y688390D01*
X196088Y684682D01*
X198526Y681177D01*
X201676Y677672D01*
X205587Y674014D01*
X210210Y670407D01*
X214934Y667359D01*
X219811Y665022D01*
X224739Y663244D01*
X229717Y662076D01*
X234746Y661568D01*
X239674Y661568D01*
X244551Y662228D01*
X249326Y663448D01*
X253949Y665226D01*
X258368Y667613D01*
X262585Y670509D01*
X266496Y674014D01*
X270154Y678027D01*
X273456Y682548D01*
X276352Y687628D01*
X278536Y692607D01*
X280111Y697687D01*
X281127Y702818D01*
X281533Y707999D01*
X281381Y713130D01*
X280670Y718261D01*
X279400Y723341D01*
X277571Y728268D01*
X275183Y733044D01*
X272288Y737666D01*
X268833Y742035D01*
X264871Y746201D01*
X260553Y749808D01*
X255930Y752754D01*
X251104Y755040D01*
X246125Y756666D01*
X240995Y757631D01*
G37*
G36*
X67513Y756869D02*
G01*
X58419Y756310D01*
X45110Y754126D01*
X37846Y751332D01*
X35458Y747115D01*
X36931Y740613D01*
X38912Y736955D01*
X41656Y735431D01*
X45872Y735990D01*
X57505Y740460D01*
X63042Y741629D01*
X68173Y741883D01*
X72136Y741172D01*
X76098Y738987D01*
X78587Y736193D01*
X79705Y733094D01*
X79451Y729843D01*
X77927Y726643D01*
X75184Y723747D01*
X71272Y721309D01*
X66243Y719582D01*
X58369Y717296D01*
X51358Y714451D01*
X45262Y711098D01*
X40132Y707288D01*
X35966Y703122D01*
X32867Y698703D01*
X30784Y694029D01*
X29870Y689203D01*
X30073Y684276D01*
X31495Y679348D01*
X34137Y674471D01*
X38049Y669747D01*
X41452Y667054D01*
X45669Y664921D01*
X50546Y663346D01*
X55930Y662330D01*
X61671Y661771D01*
X67564Y661720D01*
X73456Y662076D01*
X79197Y662889D01*
X84632Y664057D01*
X89611Y665581D01*
X93980Y667461D01*
X97536Y669645D01*
X100126Y672084D01*
X101650Y674725D01*
X101854Y677621D01*
X100685Y680720D01*
X98094Y683514D01*
X94437Y684479D01*
X89154Y683717D01*
X75742Y679297D01*
X70053Y678281D01*
X64769Y677976D01*
X59994Y678434D01*
X55930Y679551D01*
X52832Y681380D01*
X50850Y683818D01*
X50139Y686866D01*
X51968Y689762D01*
X57048Y693877D01*
X64566Y698652D01*
X80314Y707034D01*
X85953Y710793D01*
X90678Y714654D01*
X94488Y718616D01*
X97282Y722680D01*
X99110Y726795D01*
X99923Y730910D01*
X99771Y734974D01*
X98602Y738987D01*
X96418Y742899D01*
X93167Y746709D01*
X88900Y750316D01*
X82651Y753922D01*
X75590Y756107D01*
G37*
G36*
X391617Y601522D02*
G01*
X384606Y600913D01*
X377647Y599694D01*
X370941Y597712D01*
X364591Y595071D01*
X358648Y591718D01*
X353263Y587705D01*
X346659Y581406D01*
X340156Y574040D01*
X334518Y566572D01*
X326136Y552805D01*
X321360Y548335D01*
X315518Y545947D01*
X307898Y545236D01*
X301294Y545642D01*
X294436Y546760D01*
X288137Y548436D01*
X279146Y552348D01*
X276199Y552805D01*
X274472Y551738D01*
X273812Y549198D01*
X274370Y545033D01*
X276047Y539242D01*
X278892Y531723D01*
X282854Y522376D01*
X286054Y515975D01*
X289864Y509676D01*
X294284Y503478D01*
X299110Y497484D01*
X304342Y491794D01*
X309880Y486460D01*
X315620Y481533D01*
X321462Y477215D01*
X327304Y473456D01*
X333146Y470357D01*
X338836Y468071D01*
X344271Y466598D01*
X349707Y465937D01*
X355854Y465734D01*
X362559Y465988D01*
X369722Y466699D01*
X377190Y467817D01*
X384810Y469290D01*
X392480Y471170D01*
X400050Y473354D01*
X407365Y475792D01*
X414324Y478535D01*
X420725Y481482D01*
X436219Y490169D01*
X442620Y491947D01*
X448513Y489915D01*
X456742Y484073D01*
X460146Y481888D01*
X464616Y479602D01*
X469950Y477316D01*
X482396Y472948D01*
X496011Y469392D01*
X502767Y468020D01*
X521157Y465226D01*
X527812Y464769D01*
X533501Y465023D01*
X538734Y466090D01*
X544017Y468020D01*
X549859Y470865D01*
X556818Y474675D01*
X560832Y477113D01*
X564845Y480009D01*
X568858Y483260D01*
X576783Y490778D01*
X584352Y499364D01*
X587959Y503986D01*
X594664Y513740D01*
X600506Y523900D01*
X603046Y529082D01*
X607263Y539343D01*
X608838Y544423D01*
X610362Y550570D01*
X610057Y553415D01*
X607466Y553313D01*
X602183Y550722D01*
X597052Y548589D01*
X590600Y546862D01*
X583590Y545693D01*
X576935Y545236D01*
X568909Y546049D01*
X562406Y549097D01*
X556412Y554990D01*
X544271Y572668D01*
X537972Y580593D01*
X531672Y587349D01*
X526186Y592124D01*
X522071Y594614D01*
X517398Y596646D01*
X512267Y598220D01*
X506780Y599440D01*
X500989Y600202D01*
X495046Y600557D01*
X489051Y600557D01*
X483006Y600151D01*
X477113Y599389D01*
X471373Y598220D01*
X465988Y596747D01*
X460959Y594918D01*
X456438Y592734D01*
X452475Y590194D01*
X449173Y587400D01*
X446684Y584250D01*
X444347Y582980D01*
X440588Y583590D01*
X435660Y585978D01*
X424484Y593750D01*
X418592Y596747D01*
X412242Y598982D01*
X405536Y600557D01*
X398627Y601370D01*
G37*
D10*
X4673600Y2450063D02*
G01*
X4578146Y2306881D01*
X4578146Y2450063D02*
G01*
X4673600Y2306881D01*
X4485419Y2450063D02*
G01*
X4485419Y2306881D01*
X4533145Y2450063D02*
G01*
X4437692Y2450063D01*
X4379053Y2450063D02*
G01*
X4304055Y2450063D01*
X4344964Y2395517D01*
X4324510Y2395517D01*
X4310872Y2388699D01*
X4304055Y2381882D01*
X4297238Y2361427D01*
X4297238Y2347790D01*
X4304055Y2327335D01*
X4317692Y2313698D01*
X4338147Y2306881D01*
X4358599Y2306881D01*
X4379053Y2313698D01*
X4385873Y2320518D01*
X4392691Y2334153D01*
X4211327Y2450063D02*
G01*
X4231782Y2443246D01*
X4245419Y2422791D01*
X4252236Y2388699D01*
X4252236Y2368245D01*
X4245419Y2334153D01*
X4231782Y2313698D01*
X4211327Y2306881D01*
X4197692Y2306881D01*
X4177238Y2313698D01*
X4163601Y2334153D01*
X4156783Y2368245D01*
X4156783Y2388699D01*
X4163601Y2422791D01*
X4177238Y2443246D01*
X4197692Y2450063D01*
X4211327Y2450063D01*
D11*
X4635500Y1283738D02*
G01*
X4635500Y1174635D01*
X4635500Y1283738D02*
G01*
X4588741Y1283738D01*
X4573155Y1278544D01*
X4567958Y1273347D01*
X4562764Y1262956D01*
X4562764Y1252565D01*
X4567958Y1242174D01*
X4573155Y1236979D01*
X4588741Y1231785D01*
X4635500Y1231785D02*
G01*
X4588741Y1231785D01*
X4573155Y1226588D01*
X4567958Y1221394D01*
X4562764Y1211003D01*
X4562764Y1195415D01*
X4567958Y1185024D01*
X4573155Y1179829D01*
X4588741Y1174635D01*
X4635500Y1174635D01*
X4528474Y1283738D02*
G01*
X4528474Y1205806D01*
X4523277Y1190221D01*
X4512886Y1179829D01*
X4497301Y1174635D01*
X4486909Y1174635D01*
X4471324Y1179829D01*
X4460933Y1190221D01*
X4455736Y1205806D01*
X4455736Y1283738D01*
X4343514Y1257762D02*
G01*
X4348711Y1268153D01*
X4359102Y1278544D01*
X4369493Y1283738D01*
X4390275Y1283738D01*
X4400664Y1278544D01*
X4411055Y1268153D01*
X4416252Y1257762D01*
X4421446Y1242174D01*
X4421446Y1216197D01*
X4416252Y1200612D01*
X4411055Y1190221D01*
X4400664Y1179829D01*
X4390275Y1174635D01*
X4369493Y1174635D01*
X4359102Y1179829D01*
X4348711Y1190221D01*
X4343514Y1200612D01*
X4309224Y1283738D02*
G01*
X4309224Y1174635D01*
X4236488Y1283738D02*
G01*
X4309224Y1211003D01*
X4283247Y1236979D02*
G01*
X4236488Y1174635D01*
X4122188Y1283738D02*
G01*
X4122188Y1174635D01*
X4122188Y1283738D02*
G01*
X4075429Y1283738D01*
X4059844Y1278544D01*
X4054647Y1273347D01*
X4049453Y1262956D01*
X4049453Y1252565D01*
X4054647Y1242174D01*
X4059844Y1236979D01*
X4075429Y1231785D01*
X4122188Y1231785D01*
X4085821Y1231785D02*
G01*
X4049453Y1174635D01*
X4015163Y1283738D02*
G01*
X4015163Y1174635D01*
X4015163Y1283738D02*
G01*
X3947622Y1283738D01*
X4015163Y1231785D02*
G01*
X3973598Y1231785D01*
X4015163Y1174635D02*
G01*
X3947622Y1174635D01*
X3835400Y1257762D02*
G01*
X3840594Y1268153D01*
X3850985Y1278544D01*
X3861376Y1283738D01*
X3882158Y1283738D01*
X3892550Y1278544D01*
X3902941Y1268153D01*
X3908135Y1257762D01*
X3913332Y1242174D01*
X3913332Y1216197D01*
X3908135Y1200612D01*
X3902941Y1190221D01*
X3892550Y1179829D01*
X3882158Y1174635D01*
X3861376Y1174635D01*
X3850985Y1179829D01*
X3840594Y1190221D01*
X3835400Y1200612D01*
X3835400Y1216197D01*
X3861376Y1216197D02*
G01*
X3835400Y1216197D01*
X3801109Y1283738D02*
G01*
X3801109Y1205806D01*
X3795915Y1190221D01*
X3785524Y1179829D01*
X3769936Y1174635D01*
X3759545Y1174635D01*
X3743959Y1179829D01*
X3733568Y1190221D01*
X3728374Y1205806D01*
X3728374Y1283738D01*
X3694084Y1283738D02*
G01*
X3694084Y1174635D01*
X3694084Y1174635D02*
G01*
X3631737Y1174635D01*
X3555885Y1283738D02*
G01*
X3597447Y1174635D01*
X3555885Y1283738D02*
G01*
X3514321Y1174635D01*
X3581862Y1211003D02*
G01*
X3529906Y1211003D01*
X3443663Y1283738D02*
G01*
X3443663Y1174635D01*
X3480031Y1283738D02*
G01*
X3407295Y1283738D01*
X3341832Y1283738D02*
G01*
X3352223Y1278544D01*
X3362614Y1268153D01*
X3367808Y1257762D01*
X3373005Y1242174D01*
X3373005Y1216197D01*
X3367808Y1200612D01*
X3362614Y1190221D01*
X3352223Y1179829D01*
X3341832Y1174635D01*
X3321050Y1174635D01*
X3310658Y1179829D01*
X3300267Y1190221D01*
X3295073Y1200612D01*
X3289876Y1216197D01*
X3289876Y1242174D01*
X3295073Y1257762D01*
X3300267Y1268153D01*
X3310658Y1278544D01*
X3321050Y1283738D01*
X3341832Y1283738D01*
X3255586Y1283738D02*
G01*
X3255586Y1174635D01*
X3255586Y1283738D02*
G01*
X3208827Y1283738D01*
X3193242Y1278544D01*
X3188045Y1273347D01*
X3182851Y1262956D01*
X3182851Y1252565D01*
X3188045Y1242174D01*
X3193242Y1236979D01*
X3208827Y1231785D01*
X3255586Y1231785D01*
X3219218Y1231785D02*
G01*
X3182851Y1174635D01*
D12*
X3073400Y659709D02*
G01*
X3073400Y564253D01*
X3073400Y659709D02*
G01*
X3014309Y659709D01*
X3073400Y614253D02*
G01*
X3037037Y614253D01*
X3073400Y564253D02*
G01*
X3014309Y564253D01*
X2984309Y659709D02*
G01*
X2984309Y564253D01*
X2984309Y659709D02*
G01*
X2920672Y564253D01*
X2920672Y659709D02*
G01*
X2920672Y564253D01*
X3086100Y901009D02*
G01*
X3086100Y805553D01*
X3056100Y901009D02*
G01*
X3056100Y805553D01*
X3056100Y901009D02*
G01*
X2992462Y805553D01*
X2992462Y901009D02*
G01*
X2992462Y805553D01*
X2921553Y887371D02*
G01*
X2921553Y805553D01*
X2962462Y846462D02*
G01*
X2880647Y846462D01*
X3081418Y1132281D02*
G01*
X3085962Y1141371D01*
X3095053Y1150462D01*
X3104146Y1155009D01*
X3122328Y1155009D01*
X3131418Y1150462D01*
X3140509Y1141371D01*
X3145053Y1132281D01*
X3149600Y1118646D01*
X3149600Y1095918D01*
X3145053Y1082281D01*
X3140509Y1073190D01*
X3131418Y1064099D01*
X3122328Y1059553D01*
X3104146Y1059553D01*
X3095053Y1064099D01*
X3085962Y1073190D01*
X3081418Y1082281D01*
X3081418Y1095918D01*
X3104146Y1095918D02*
G01*
X3081418Y1095918D01*
X3051418Y1155009D02*
G01*
X3051418Y1059553D01*
X3051418Y1155009D02*
G01*
X2987781Y1059553D01*
X2987781Y1155009D02*
G01*
X2987781Y1059553D01*
X2957781Y1155009D02*
G01*
X2957781Y1059553D01*
X2957781Y1155009D02*
G01*
X2925963Y1155009D01*
X2912328Y1150462D01*
X2903237Y1141371D01*
X2898691Y1132281D01*
X2894147Y1118646D01*
X2894147Y1095918D01*
X2898691Y1082281D01*
X2903237Y1073190D01*
X2912328Y1064099D01*
X2925963Y1059553D01*
X2957781Y1059553D01*
X3162300Y1409009D02*
G01*
X3125937Y1313553D01*
X3089572Y1409009D02*
G01*
X3125937Y1313553D01*
X3032300Y1409009D02*
G01*
X3041390Y1404462D01*
X3050481Y1395371D01*
X3055028Y1386281D01*
X3059572Y1372646D01*
X3059572Y1349918D01*
X3055028Y1336281D01*
X3050481Y1327190D01*
X3041390Y1318099D01*
X3032300Y1313553D01*
X3014118Y1313553D01*
X3005028Y1318099D01*
X2995937Y1327190D01*
X2991391Y1336281D01*
X2986846Y1349918D01*
X2986846Y1372646D01*
X2991391Y1386281D01*
X2995937Y1395371D01*
X3005028Y1404462D01*
X3014118Y1409009D01*
X3032300Y1409009D01*
X2915937Y1395371D02*
G01*
X2915937Y1313553D01*
X2956847Y1354462D02*
G01*
X2875028Y1354462D01*
D11*
X1865167Y2426162D02*
G01*
X1870364Y2436553D01*
X1880755Y2446944D01*
X1891144Y2452138D01*
X1911926Y2452138D01*
X1922317Y2446944D01*
X1932708Y2436553D01*
X1937905Y2426162D01*
X1943100Y2410574D01*
X1943100Y2384597D01*
X1937905Y2369012D01*
X1932708Y2358621D01*
X1922317Y2348229D01*
X1911926Y2343035D01*
X1891144Y2343035D01*
X1880755Y2348229D01*
X1870364Y2358621D01*
X1865167Y2369012D01*
X1830877Y2452138D02*
G01*
X1830877Y2343035D01*
X1830877Y2452138D02*
G01*
X1784118Y2452138D01*
X1768533Y2446944D01*
X1763336Y2441747D01*
X1758142Y2431356D01*
X1758142Y2415771D01*
X1763336Y2405379D01*
X1768533Y2400185D01*
X1784118Y2394988D01*
X1830877Y2394988D01*
X1723852Y2452138D02*
G01*
X1723852Y2343035D01*
X1723852Y2452138D02*
G01*
X1682287Y2343035D01*
X1640725Y2452138D02*
G01*
X1682287Y2343035D01*
X1640725Y2452138D02*
G01*
X1640725Y2343035D01*
X1570065Y2452138D02*
G01*
X1570065Y2343035D01*
X1606435Y2452138D02*
G01*
X1533697Y2452138D01*
X2641600Y2452138D02*
G01*
X2641600Y2343035D01*
X2568864Y2452138D02*
G01*
X2568864Y2343035D01*
X2641600Y2400185D02*
G01*
X2568864Y2400185D01*
X2534574Y2452138D02*
G01*
X2534574Y2343035D01*
X2534574Y2452138D02*
G01*
X2487815Y2452138D01*
X2472227Y2446944D01*
X2467033Y2441747D01*
X2461836Y2431356D01*
X2461836Y2420965D01*
X2467033Y2410574D01*
X2472227Y2405379D01*
X2487815Y2400185D01*
X2534574Y2400185D01*
X2498204Y2400185D02*
G01*
X2461836Y2343035D01*
X3975100Y2401338D02*
G01*
X3975100Y2292235D01*
X3975100Y2292235D02*
G01*
X3912755Y2292235D01*
X3836901Y2401338D02*
G01*
X3878465Y2292235D01*
X3836901Y2401338D02*
G01*
X3795336Y2292235D01*
X3862877Y2328603D02*
G01*
X3810924Y2328603D01*
X3860800Y958156D02*
G01*
X3850408Y963353D01*
X3834823Y978938D01*
X3834823Y869835D01*
X3769359Y978938D02*
G01*
X3784945Y973744D01*
X3795336Y958156D01*
X3800533Y932179D01*
X3800533Y916594D01*
X3795336Y890615D01*
X3784945Y875029D01*
X3769359Y869835D01*
X3758968Y869835D01*
X3743383Y875029D01*
X3732992Y890615D01*
X3727795Y916594D01*
X3727795Y932179D01*
X3732992Y958156D01*
X3743383Y973744D01*
X3758968Y978938D01*
X3769359Y978938D01*
X3693505Y978938D02*
G01*
X3693505Y869835D01*
X3620770Y978938D02*
G01*
X3693505Y906203D01*
X3667528Y932179D02*
G01*
X3620770Y869835D01*
X3962400Y1944138D02*
G01*
X3962400Y1835035D01*
X3962400Y1944138D02*
G01*
X3915641Y1944138D01*
X3900055Y1938944D01*
X3894858Y1933747D01*
X3889664Y1923356D01*
X3889664Y1912965D01*
X3894858Y1902574D01*
X3900055Y1897379D01*
X3915641Y1892185D01*
X3962400Y1892185D01*
X3926032Y1892185D02*
G01*
X3889664Y1835035D01*
X3813809Y1944138D02*
G01*
X3855374Y1835035D01*
X3813809Y1944138D02*
G01*
X3772245Y1835035D01*
X3839786Y1871403D02*
G01*
X3787833Y1871403D01*
D13*
X2260600Y783841D02*
G01*
X2375154Y783841D01*
X2260600Y747773D02*
G01*
X2375154Y747773D01*
X2260600Y747773D02*
G01*
X2375154Y671319D01*
X2260600Y671319D02*
G01*
X2375154Y671319D01*
X2282443Y635505D02*
G01*
X2277109Y624583D01*
X2260600Y608073D01*
X2375154Y608073D01*
X2006600Y832865D02*
G01*
X2121154Y832865D01*
X2006600Y796797D02*
G01*
X2121154Y796797D01*
X2006600Y796797D02*
G01*
X2121154Y720344D01*
X2006600Y720344D02*
G01*
X2121154Y720344D01*
X2034031Y678942D02*
G01*
X2028443Y678942D01*
X2017522Y673607D01*
X2012188Y668020D01*
X2006600Y657097D01*
X2006600Y635254D01*
X2012188Y624331D01*
X2017522Y618997D01*
X2028443Y613663D01*
X2039365Y613663D01*
X2050288Y618997D01*
X2066797Y629920D01*
X2121154Y684529D01*
X2121154Y608076D01*
X1752600Y931161D02*
G01*
X1867154Y887473D01*
X1752600Y843785D02*
G01*
X1867154Y887473D01*
X1780031Y725929D02*
G01*
X1769110Y731517D01*
X1758187Y742439D01*
X1752600Y753361D01*
X1752600Y775205D01*
X1758187Y786127D01*
X1769110Y797049D01*
X1780031Y802383D01*
X1796287Y807717D01*
X1823465Y807717D01*
X1839976Y802383D01*
X1850897Y797049D01*
X1861820Y786127D01*
X1867154Y775205D01*
X1867154Y753361D01*
X1861820Y742439D01*
X1850897Y731517D01*
X1839976Y725929D01*
X1780031Y608073D02*
G01*
X1769110Y613661D01*
X1758187Y624583D01*
X1752600Y635505D01*
X1752600Y657349D01*
X1758187Y668271D01*
X1769110Y679193D01*
X1780031Y684527D01*
X1796287Y690115D01*
X1823465Y690115D01*
X1839976Y684527D01*
X1850897Y679193D01*
X1861820Y668271D01*
X1867154Y657349D01*
X1867154Y635505D01*
X1861820Y624583D01*
X1850897Y613661D01*
X1839976Y608073D01*
X1526031Y832865D02*
G01*
X1515110Y838200D01*
X1504187Y849121D01*
X1498600Y860044D01*
X1498600Y881887D01*
X1504187Y892810D01*
X1515110Y903731D01*
X1526031Y909065D01*
X1542287Y914654D01*
X1569465Y914654D01*
X1585976Y909065D01*
X1596897Y903731D01*
X1607820Y892810D01*
X1613154Y881887D01*
X1613154Y860044D01*
X1607820Y849121D01*
X1596897Y838200D01*
X1585976Y832865D01*
X1569465Y832865D01*
X1569465Y860044D02*
G01*
X1569465Y832865D01*
X1498600Y796797D02*
G01*
X1613154Y796797D01*
X1498600Y796797D02*
G01*
X1613154Y720344D01*
X1498600Y720344D02*
G01*
X1613154Y720344D01*
X1498600Y684529D02*
G01*
X1613154Y684529D01*
X1498600Y684529D02*
G01*
X1498600Y646176D01*
X1504187Y629920D01*
X1515110Y618997D01*
X1526031Y613410D01*
X1542287Y608076D01*
X1569465Y608076D01*
X1585976Y613410D01*
X1596897Y618997D01*
X1607820Y629920D01*
X1613154Y646176D01*
X1613154Y684529D01*
X1244600Y832865D02*
G01*
X1359154Y832865D01*
X1244600Y796797D02*
G01*
X1359154Y796797D01*
X1244600Y796797D02*
G01*
X1359154Y720344D01*
X1244600Y720344D02*
G01*
X1359154Y720344D01*
X1244600Y673607D02*
G01*
X1244600Y613663D01*
X1288287Y646176D01*
X1288287Y629920D01*
X1293876Y618997D01*
X1299210Y613663D01*
X1315465Y608076D01*
X1326387Y608076D01*
X1342897Y613663D01*
X1353820Y624331D01*
X1359154Y640842D01*
X1359154Y657097D01*
X1353820Y673607D01*
X1348231Y678942D01*
X1337310Y684529D01*
X990600Y838200D02*
G01*
X1105154Y838200D01*
X990600Y802131D02*
G01*
X1105154Y802131D01*
X990600Y802131D02*
G01*
X1105154Y725678D01*
X990600Y725678D02*
G01*
X1105154Y725678D01*
X990600Y635254D02*
G01*
X1067054Y689863D01*
X1067054Y608076D01*
X990600Y635254D02*
G01*
X1105154Y635254D01*
X2260600Y1841500D02*
G01*
X2342388Y1841500D01*
X2358897Y1835912D01*
X2369820Y1824989D01*
X2375154Y1808734D01*
X2375154Y1797812D01*
X2369820Y1781555D01*
X2358897Y1770634D01*
X2342388Y1765045D01*
X2260600Y1765045D01*
X2260600Y1728978D02*
G01*
X2375154Y1728978D01*
X2375154Y1728978D02*
G01*
X2375154Y1663700D01*
X2260600Y1589531D02*
G01*
X2375154Y1589531D01*
X2260600Y1627631D02*
G01*
X2260600Y1551178D01*
X2006600Y1808734D02*
G01*
X2012188Y1819655D01*
X2023109Y1830578D01*
X2034031Y1835912D01*
X2050288Y1841500D01*
X2077465Y1841500D01*
X2093975Y1835912D01*
X2104897Y1830578D01*
X2115820Y1819655D01*
X2121154Y1808734D01*
X2121154Y1786889D01*
X2115820Y1775968D01*
X2104897Y1765045D01*
X2093975Y1759712D01*
X2077465Y1754123D01*
X2050288Y1754123D01*
X2034031Y1759712D01*
X2023109Y1765045D01*
X2012188Y1775968D01*
X2006600Y1786889D01*
X2006600Y1808734D01*
X2006600Y1718055D02*
G01*
X2088388Y1718055D01*
X2104897Y1712721D01*
X2115820Y1701800D01*
X2121154Y1685544D01*
X2121154Y1674621D01*
X2115820Y1658112D01*
X2104897Y1647189D01*
X2088388Y1641855D01*
X2006600Y1641855D01*
X2006600Y1567687D02*
G01*
X2121154Y1567687D01*
X2006600Y1605787D02*
G01*
X2006600Y1529334D01*
X2006600Y1438910D02*
G01*
X2083054Y1493520D01*
X2083054Y1411731D01*
X2006600Y1438910D02*
G01*
X2121154Y1438910D01*
X1752600Y1796034D02*
G01*
X1758187Y1806955D01*
X1769110Y1817878D01*
X1780031Y1823212D01*
X1796287Y1828800D01*
X1823465Y1828800D01*
X1839976Y1823212D01*
X1850897Y1817878D01*
X1861820Y1806955D01*
X1867154Y1796034D01*
X1867154Y1774189D01*
X1861820Y1763268D01*
X1850897Y1752345D01*
X1839976Y1747012D01*
X1823465Y1741423D01*
X1796287Y1741423D01*
X1780031Y1747012D01*
X1769110Y1752345D01*
X1758187Y1763268D01*
X1752600Y1774189D01*
X1752600Y1796034D01*
X1752600Y1705355D02*
G01*
X1834387Y1705355D01*
X1850897Y1700021D01*
X1861820Y1689100D01*
X1867154Y1672844D01*
X1867154Y1661921D01*
X1861820Y1645412D01*
X1850897Y1634489D01*
X1834387Y1629155D01*
X1752600Y1629155D01*
X1752600Y1554987D02*
G01*
X1867154Y1554987D01*
X1752600Y1593087D02*
G01*
X1752600Y1516634D01*
X1752600Y1469897D02*
G01*
X1752600Y1409954D01*
X1796287Y1442465D01*
X1796287Y1426210D01*
X1801876Y1415287D01*
X1807210Y1409954D01*
X1823465Y1404365D01*
X1834387Y1404365D01*
X1850897Y1409954D01*
X1861820Y1420621D01*
X1867154Y1437131D01*
X1867154Y1453387D01*
X1861820Y1469897D01*
X1856231Y1475231D01*
X1845310Y1480820D01*
X1498600Y1796034D02*
G01*
X1504187Y1806955D01*
X1515110Y1817878D01*
X1526031Y1823212D01*
X1542287Y1828800D01*
X1569465Y1828800D01*
X1585976Y1823212D01*
X1596897Y1817878D01*
X1607820Y1806955D01*
X1613154Y1796034D01*
X1613154Y1774189D01*
X1607820Y1763268D01*
X1596897Y1752345D01*
X1585976Y1747012D01*
X1569465Y1741423D01*
X1542287Y1741423D01*
X1526031Y1747012D01*
X1515110Y1752345D01*
X1504187Y1763268D01*
X1498600Y1774189D01*
X1498600Y1796034D01*
X1498600Y1705355D02*
G01*
X1580387Y1705355D01*
X1596897Y1700021D01*
X1607820Y1689100D01*
X1613154Y1672844D01*
X1613154Y1661921D01*
X1607820Y1645412D01*
X1596897Y1634489D01*
X1580387Y1629155D01*
X1498600Y1629155D01*
X1498600Y1554987D02*
G01*
X1613154Y1554987D01*
X1498600Y1593087D02*
G01*
X1498600Y1516634D01*
X1526031Y1475231D02*
G01*
X1520444Y1475231D01*
X1509521Y1469897D01*
X1504187Y1464310D01*
X1498600Y1453387D01*
X1498600Y1431544D01*
X1504187Y1420621D01*
X1509521Y1415287D01*
X1520444Y1409954D01*
X1531365Y1409954D01*
X1542287Y1415287D01*
X1558797Y1426210D01*
X1613154Y1480820D01*
X1613154Y1404365D01*
X1244600Y1796034D02*
G01*
X1250187Y1806955D01*
X1261110Y1817878D01*
X1272031Y1823212D01*
X1288287Y1828800D01*
X1315465Y1828800D01*
X1331976Y1823212D01*
X1342897Y1817878D01*
X1353820Y1806955D01*
X1359154Y1796034D01*
X1359154Y1774189D01*
X1353820Y1763268D01*
X1342897Y1752345D01*
X1331976Y1747012D01*
X1315465Y1741423D01*
X1288287Y1741423D01*
X1272031Y1747012D01*
X1261110Y1752345D01*
X1250187Y1763268D01*
X1244600Y1774189D01*
X1244600Y1796034D01*
X1244600Y1705355D02*
G01*
X1326387Y1705355D01*
X1342897Y1700021D01*
X1353820Y1689100D01*
X1359154Y1672844D01*
X1359154Y1661921D01*
X1353820Y1645412D01*
X1342897Y1634489D01*
X1326387Y1629155D01*
X1244600Y1629155D01*
X1244600Y1554987D02*
G01*
X1359154Y1554987D01*
X1244600Y1593087D02*
G01*
X1244600Y1516634D01*
X1266444Y1480820D02*
G01*
X1261110Y1469897D01*
X1244600Y1453387D01*
X1359154Y1453387D01*
X990600Y1828800D02*
G01*
X1105154Y1828800D01*
X990600Y1828800D02*
G01*
X990600Y1757934D01*
X1045210Y1828800D02*
G01*
X1045210Y1785112D01*
X1105154Y1828800D02*
G01*
X1105154Y1757934D01*
X990600Y1721865D02*
G01*
X1105154Y1721865D01*
X990600Y1721865D02*
G01*
X990600Y1651000D01*
X1045210Y1721865D02*
G01*
X1045210Y1678178D01*
X1105154Y1721865D02*
G01*
X1105154Y1651000D01*
X990600Y1614931D02*
G01*
X1105154Y1614931D01*
X990600Y1614931D02*
G01*
X990600Y1565910D01*
X996187Y1549400D01*
X1001521Y1544065D01*
X1012444Y1538478D01*
X1028954Y1538478D01*
X1039876Y1544065D01*
X1045210Y1549400D01*
X1050797Y1565910D01*
X1050797Y1614931D01*
X2056635Y1269997D02*
G01*
X2056635Y1155443D01*
X2056635Y1269997D02*
G01*
X2018535Y1269997D01*
X2002279Y1264663D01*
X1991357Y1253741D01*
X1985769Y1242819D01*
X1980435Y1226563D01*
X1980435Y1199131D01*
X1985769Y1182875D01*
X1991357Y1171953D01*
X2002279Y1161031D01*
X2018535Y1155443D01*
X2056635Y1155443D01*
X1944367Y1269997D02*
G01*
X1944367Y1155443D01*
X1944367Y1269997D02*
G01*
X1895345Y1269997D01*
X1878835Y1264663D01*
X1873501Y1259075D01*
X1867913Y1248153D01*
X1867913Y1237231D01*
X1873501Y1226563D01*
X1878835Y1220975D01*
X1895345Y1215641D01*
X1944367Y1215641D01*
X1906267Y1215641D02*
G01*
X1867913Y1155443D01*
X1832099Y1269997D02*
G01*
X1788411Y1155443D01*
X1744723Y1269997D02*
G01*
X1788411Y1155443D01*
X1681477Y1269997D02*
G01*
X1697733Y1264663D01*
X1703321Y1253741D01*
X1703321Y1242819D01*
X1697733Y1231897D01*
X1686811Y1226563D01*
X1665221Y1220975D01*
X1648711Y1215641D01*
X1637789Y1204719D01*
X1632455Y1193797D01*
X1632455Y1177287D01*
X1637789Y1166365D01*
X1643377Y1161031D01*
X1659633Y1155443D01*
X1681477Y1155443D01*
X1697733Y1161031D01*
X1703321Y1166365D01*
X1708655Y1177287D01*
X1708655Y1193797D01*
X1703321Y1204719D01*
X1692399Y1215641D01*
X1675889Y1220975D01*
X1654299Y1226563D01*
X1643377Y1231897D01*
X1637789Y1242819D01*
X1637789Y1253741D01*
X1643377Y1264663D01*
X1659633Y1269997D01*
X1681477Y1269997D01*
X1569209Y1269997D02*
G01*
X1585465Y1264663D01*
X1590799Y1253741D01*
X1590799Y1242819D01*
X1585465Y1231897D01*
X1574543Y1226563D01*
X1552699Y1220975D01*
X1536443Y1215641D01*
X1525521Y1204719D01*
X1519933Y1193797D01*
X1519933Y1177287D01*
X1525521Y1166365D01*
X1530855Y1161031D01*
X1547365Y1155443D01*
X1569209Y1155443D01*
X1585465Y1161031D01*
X1590799Y1166365D01*
X1596387Y1177287D01*
X1596387Y1193797D01*
X1590799Y1204719D01*
X1580131Y1215641D01*
X1563621Y1220975D01*
X1541777Y1226563D01*
X1530855Y1231897D01*
X1525521Y1242819D01*
X1525521Y1253741D01*
X1530855Y1264663D01*
X1547365Y1269997D01*
X1569209Y1269997D01*
X1473197Y1269997D02*
G01*
X1412999Y1269997D01*
X1445765Y1226563D01*
X1429509Y1226563D01*
X1418587Y1220975D01*
X1412999Y1215641D01*
X1407665Y1199131D01*
X1407665Y1188209D01*
X1412999Y1171953D01*
X1423921Y1161031D01*
X1440431Y1155443D01*
X1456687Y1155443D01*
X1473197Y1161031D01*
X1478531Y1166365D01*
X1484119Y1177287D01*
X1360675Y1269997D02*
G01*
X1300731Y1269997D01*
X1333497Y1226563D01*
X1316987Y1226563D01*
X1306065Y1220975D01*
X1300731Y1215641D01*
X1295397Y1199131D01*
X1295397Y1188209D01*
X1300731Y1171953D01*
X1311653Y1161031D01*
X1327909Y1155443D01*
X1344419Y1155443D01*
X1360675Y1161031D01*
X1366263Y1166365D01*
X1371597Y1177287D01*
D11*
X3860800Y742256D02*
G01*
X3850408Y747453D01*
X3834823Y763038D01*
X3834823Y653935D01*
X3769359Y763038D02*
G01*
X3784945Y757844D01*
X3795336Y742256D01*
X3800533Y716279D01*
X3800533Y700694D01*
X3795336Y674715D01*
X3784945Y659129D01*
X3769359Y653935D01*
X3758968Y653935D01*
X3743383Y659129D01*
X3732992Y674715D01*
X3727795Y700694D01*
X3727795Y716279D01*
X3732992Y742256D01*
X3743383Y757844D01*
X3758968Y763038D01*
X3769359Y763038D01*
X3693505Y763038D02*
G01*
X3693505Y653935D01*
X3620770Y763038D02*
G01*
X3693505Y690303D01*
X3667528Y716279D02*
G01*
X3620770Y653935D01*
X1095755Y2449321D02*
G01*
X1106170Y2459736D01*
X1121663Y2464815D01*
X1142492Y2464815D01*
X1157986Y2459736D01*
X1168400Y2449321D01*
X1168400Y2438907D01*
X1163320Y2428494D01*
X1157986Y2423160D01*
X1147571Y2418079D01*
X1116329Y2407665D01*
X1106170Y2402586D01*
X1100836Y2397252D01*
X1095755Y2386837D01*
X1095755Y2371344D01*
X1106170Y2360929D01*
X1121663Y2355850D01*
X1142492Y2355850D01*
X1157986Y2360929D01*
X1168400Y2371344D01*
X1061465Y2464815D02*
G01*
X1061465Y2355850D01*
X1061465Y2464815D02*
G01*
X1014729Y2464815D01*
X998981Y2459736D01*
X993902Y2454402D01*
X988568Y2443987D01*
X988568Y2428494D01*
X993902Y2418079D01*
X998981Y2413000D01*
X1014729Y2407665D01*
X1061465Y2407665D01*
X954278Y2464815D02*
G01*
X954278Y2355850D01*
X881634Y2464815D02*
G01*
X954278Y2392171D01*
X928370Y2418079D02*
G01*
X881634Y2355850D01*
X847344Y2464815D02*
G01*
X847344Y2355850D01*
X847344Y2464815D02*
G01*
X800607Y2464815D01*
X784860Y2459736D01*
X779779Y2454402D01*
X774700Y2443987D01*
X774700Y2433573D01*
X779779Y2423160D01*
X784860Y2418079D01*
X800607Y2413000D01*
X847344Y2413000D01*
X811021Y2413000D02*
G01*
X774700Y2355850D01*
D14*
X2514600Y482600D02*
G01*
X4826000Y482600D01*
X4826000Y1511300D01*
X2514600Y1511300D01*
X2514600Y482600D01*
D12*
X1955800Y2400300D02*
G01*
X2146300Y2400300D01*
X2146300Y2146300D01*
X1384300Y2146300D01*
X1384300Y2400300D01*
D15*
X1384300Y2400300D02*
G01*
X1955800Y2400300D01*
D12*
X2743200Y2400300D02*
G01*
X2933700Y2400300D01*
X2933700Y2146300D01*
X2171700Y2146300D01*
X2171700Y2400300D01*
D15*
X2171700Y2400300D02*
G01*
X2743200Y2400300D01*
D12*
X3568700Y2374900D02*
G01*
X3759200Y2374900D01*
X3759200Y2120900D01*
X2997200Y2120900D01*
X2997200Y2374900D01*
D15*
X2997200Y2374900D02*
G01*
X3568700Y2374900D01*
D14*
X3987800Y711200D02*
G01*
X4013200Y711200D01*
X3479800Y711200D02*
G01*
X3454400Y711200D01*
X3987800Y711200D02*
G01*
X3987800Y787400D01*
X3987800Y635000D02*
G01*
X3987800Y711200D01*
X3479800Y635000D02*
G01*
X3987800Y635000D01*
X3479800Y711200D02*
G01*
X3479800Y635000D01*
X3479800Y787400D02*
G01*
X3479800Y711200D01*
X3987800Y787400D02*
G01*
X3479800Y787400D01*
D12*
X3568700Y2095500D02*
G01*
X3759200Y2095500D01*
X3759200Y1841500D01*
X2997200Y1841500D01*
X2997200Y2095500D01*
D15*
X2997200Y2095500D02*
G01*
X3568700Y2095500D01*
D14*
X876401Y2119099D02*
G01*
X876401Y319102D01*
X2476398Y319102D01*
X2476398Y2119099D01*
X876401Y2119099D01*
X3479800Y927100D02*
G01*
X3454400Y927100D01*
X3987800Y927100D02*
G01*
X4013200Y927100D01*
X3479800Y927100D02*
G01*
X3479800Y850900D01*
X3479800Y1003300D02*
G01*
X3479800Y927100D01*
X3987800Y1003300D02*
G01*
X3479800Y1003300D01*
X3987800Y927100D02*
G01*
X3987800Y1003300D01*
X3987800Y850900D02*
G01*
X3987800Y927100D01*
X3479800Y850900D02*
G01*
X3987800Y850900D01*
D12*
X1168400Y2400300D02*
G01*
X1358900Y2400300D01*
X1358900Y2146300D01*
X596900Y2146300D01*
X596900Y2400300D01*
D15*
X596900Y2400300D02*
G01*
X1168400Y2400300D01*
M02*
